<?xml version="1.0" encoding="UTF-8" standalone="no"?>
<!-- Created with Inkscape (http://www.inkscape.org/) -->

<svg
   xmlns:dc="http://purl.org/dc/elements/1.1/"
   xmlns:cc="http://creativecommons.org/ns#"
   xmlns:rdf="http://www.w3.org/1999/02/22-rdf-syntax-ns#"
   xmlns:svg="http://www.w3.org/2000/svg"
   xmlns="http://www.w3.org/2000/svg"
   xmlns:sodipodi="http://sodipodi.sourceforge.net/DTD/sodipodi-0.dtd"
   xmlns:inkscape="http://www.inkscape.org/namespaces/inkscape"
   width="210mm"
   height="297mm"
   viewBox="0 0 210 297"
   version="1.1"
   id="svg8"
   inkscape:export-filename="/home/vilda/untitled-untitled-game/graphics_raw/spiz_menu.png"
   inkscape:export-xdpi="325.47882"
   inkscape:export-ydpi="325.47882"
   inkscape:version="0.92.4 (unknown)"
   sodipodi:docname="skewer.svg">
  <defs
     id="defs2" />
  <sodipodi:namedview
     id="base"
     pagecolor="#ffffff"
     bordercolor="#666666"
     borderopacity="1.0"
     inkscape:pageopacity="0.0"
     inkscape:pageshadow="2"
     inkscape:zoom="1.979899"
     inkscape:cx="250.55827"
     inkscape:cy="866.48822"
     inkscape:document-units="mm"
     inkscape:current-layer="layer1"
     showgrid="false"
     inkscape:window-width="1920"
     inkscape:window-height="1043"
     inkscape:window-x="0"
     inkscape:window-y="0"
     inkscape:window-maximized="1" />
  <metadata
     id="metadata5">
    <rdf:RDF>
      <cc:Work
         rdf:about="">
        <dc:format>image/svg+xml</dc:format>
        <dc:type
           rdf:resource="http://purl.org/dc/dcmitype/StillImage" />
        <dc:title></dc:title>
      </cc:Work>
    </rdf:RDF>
  </metadata>
  <g
     inkscape:label="Layer 1"
     inkscape:groupmode="layer"
     id="layer1">
    <path
       style="fill:#00000a;fill-opacity:1;stroke-width:0.26458332"
       id="path29"
       d="m 62.567883,86.489822 c -1.078384,0.75375 -2.058075,1.636403 -3.04309,2.505469 -1.65582,1.497087 -3.169573,3.138914 -4.625702,4.827879 -0.200959,0.245131 -0.404474,0.488188 -0.602877,0.735393 -0.565796,0.704972 -1.112448,1.424594 -1.690272,2.120043 -0.420426,0.506008 -0.62725,0.73374 -1.061315,1.226606 -0.933543,1.06 -1.870067,2.117128 -2.817326,3.164888 -0.579011,0.6282 -1.142132,1.27072 -1.722543,1.89763 -0.03678,0.0375 -0.300429,0.30477 -0.357304,0.36666 -0.02074,0.0226 -0.02874,0.0794 -0.05829,0.0712 -0.0316,-0.009 -0.03319,-0.0626 -0.02664,-0.0947 0.0079,-0.0388 0.158975,-0.12246 0.188436,-0.14105 -1.928365,1.13185 -0.139708,0.0324 0.557519,-0.29576 0,0 -0.935161,0.74615 -0.935161,0.74615 v 0 c -1.226492,0.61209 3.495129,-1.95965 -0.560007,0.30492 -0.0733,0.0344 -0.337338,0.18009 -0.339545,-0.0432 -5.29e-4,-0.0579 0.418555,-0.41578 0.443426,-0.45935 0.594196,-0.63107 1.170889,-1.27812 1.761617,-1.91239 0.960265,-1.04834 1.905555,-2.109706 2.846541,-3.175363 0.337118,-0.380744 0.746627,-0.838444 1.073642,-1.227217 0.789556,-0.938681 1.518012,-1.926238 2.307571,-2.86485 1.462114,-1.687873 2.983347,-3.325964 4.624451,-4.842653 0.946174,-0.847749 1.885027,-1.708825 2.908038,-2.464411 0,0 1.128832,-0.445884 1.128832,-0.445884 z"
       inkscape:connector-curvature="0" />
    <path
       style="fill:#00000a;fill-opacity:1;stroke-width:0.26458332"
       id="path31"
       d="m 46.885007,102.83261 c 0.212673,0.20777 0.372362,0.45981 0.585026,0.66763 0.06413,0.0477 0.140827,0.1421 0.228756,0.15108 0.02238,0.002 0.08488,-0.0282 0.06521,-0.0173 -1.065811,0.59025 -1.235372,0.801 -0.894506,0.42464 0.168939,-0.29207 0.236537,-0.63213 0.400962,-0.9263 0.0354,-0.0633 0.07903,-0.1217 0.118547,-0.18255 0.313957,-0.40769 0.703395,-0.74715 1.070896,-1.10457 0.645173,-0.60865 1.176028,-1.32463 1.686713,-2.046178 0.09224,-0.131405 0.183068,-0.263811 0.276712,-0.394219 0.180848,-0.251843 0.376097,-0.51798 0.57876,-0.753144 0.363617,-0.421923 0.773171,-0.808286 1.158857,-1.209622 0.976765,-1.025475 1.935048,-2.0682 2.911826,-3.093678 0.377913,-0.404148 0.74467,-0.820687 1.073158,-1.266563 0.285094,-0.386979 0.540068,-0.796972 0.813724,-1.192072 0.532667,-0.793102 1.247732,-1.41682 1.96891,-2.030468 0.122468,-0.108365 0.247621,-0.21377 0.367403,-0.325099 0.373962,-0.34758 0.357648,-0.362172 0.726062,-0.717677 0.400404,-0.386376 0.815726,-0.758415 1.222128,-1.13851 0.118089,-0.108188 0.236178,-0.216373 0.354267,-0.324562 0,0 1.069324,-0.436895 1.069324,-0.436895 v 0 c -0.120875,0.108767 -0.24175,0.217532 -0.362622,0.3263 -0.405987,0.377745 -0.820827,0.74813 -1.220004,1.133014 -0.245224,0.236442 -0.473096,0.488032 -0.720162,0.722633 -0.11789,0.111942 -0.241665,0.217524 -0.362497,0.326287 -0.477364,0.403121 -0.97495,0.799049 -1.394045,1.26501 -0.105315,0.117091 -0.19993,0.2434 -0.29804,0.36659 -0.09792,0.12295 -0.193341,0.247859 -0.290012,0.37179 -0.277175,0.396571 -0.533707,0.809218 -0.818161,1.200468 -0.33053,0.454628 -0.703146,0.877213 -1.088331,1.285761 -0.979245,1.020887 -1.941233,2.057815 -2.90698,3.091415 -0.376312,0.398995 -0.777132,0.781296 -1.140489,1.192128 -0.31664,0.358011 -0.587886,0.75269 -0.863304,1.142169 -0.5037,0.716592 -1.018458,1.436252 -1.645126,2.051852 -0.3625,0.35495 -0.745958,0.69025 -1.071904,1.08052 -0.04108,0.0548 -0.08672,0.10655 -0.123259,0.16452 -0.180549,0.28646 -0.250539,0.63105 -0.389197,0.93669 -0.294208,0.63893 -1.064813,1.07687 -1.534162,0.55742 -0.203221,-0.21152 -0.360945,-0.46278 -0.584647,-0.65426 0,0 1.03021,-0.64423 1.03021,-0.64423 z"
       inkscape:connector-curvature="0" />
    <path
       style="fill:#00000a;fill-opacity:1;stroke-width:0.26458332"
       id="path33"
       d="m 64.893668,85.852639 c -0.591632,0.45661 -1.191675,0.903407 -1.76897,1.378202 -0.258058,0.206263 -0.502012,0.428381 -0.746834,0.649763 -0.06317,0.05713 -0.117361,0.127119 -0.191315,0.169373 -0.38449,0.219673 -0.756409,0.47919 -1.178454,0.613228 -0.07324,0.02326 -0.06864,-0.13751 -0.102965,-0.206264 0.01024,-0.101539 0.0054,-0.205759 0.0307,-0.304618 0.07264,-0.283466 0.277813,-0.678193 0.403307,-0.924128 0.287959,-0.564314 0.598033,-1.117868 0.895887,-1.677001 0.327856,-0.643186 0.72222,-1.247817 1.142408,-1.833586 0.337253,-0.439227 0.608555,-0.522724 1.325327,-0.672455 0.07303,-0.01527 -0.02535,0.148141 -0.05287,0.217491 -0.04031,0.101618 -0.286547,0.524901 -0.325128,0.592653 -0.346856,0.637802 -0.779913,1.216673 -1.218028,1.792436 -0.267909,0.491548 -0.05217,0.07774 -0.11176,0.102179 -0.30258,0.124098 -0.564753,0.331613 -0.860161,0.471935 -0.0933,0.04432 0.167804,-0.120515 0.25054,-0.182354 0.091,-0.06802 0.180427,-0.138123 0.270642,-0.207184 0.416507,-0.318937 1.790972,-1.479447 2.07292,-1.122442 0.04801,0.06078 0.05341,0.145417 0.08011,0.218125 0.02013,0.391303 -0.115507,0.763691 -0.228312,1.132147 0,0 -1.073642,0.506309 -1.073642,0.506309 v 0 c 0.112141,-0.344646 0.246187,-0.693034 0.248735,-1.060045 -0.0093,-0.03981 2.3e-4,-0.0898 -0.02793,-0.119436 -0.02249,-0.02368 -0.06479,-0.0081 -0.09718,-0.01222 0.287118,-0.175425 0.574236,-0.350849 0.861351,-0.526273 0.07324,-0.04447 -0.148076,0.08664 -0.21827,0.135779 -0.116801,0.08177 -0.418505,0.326663 -0.524505,0.411599 -0.583898,0.453576 -0.944337,0.740519 -1.717974,1.09632 -0.162906,0.07492 -0.150423,-0.145693 -0.130913,-0.190519 0.02954,-0.06788 0.0801,-0.124513 0.120153,-0.186769 0.438398,-0.575194 0.892384,-1.139309 1.234077,-1.781252 0.102436,-0.187362 0.211698,-0.371041 0.310055,-0.560578 0.02506,-0.04827 0.02098,-0.119708 0.06696,-0.148759 0.345781,-0.218511 0.723654,-0.381601 1.082619,-0.577702 0.03568,-0.0195 -0.08075,0.02196 -0.112275,0.04761 -0.05206,0.04238 -0.08835,0.101102 -0.13252,0.151651 -0.441102,0.584473 -0.847656,1.197039 -1.198448,1.840167 -0.299043,0.554881 -0.607775,1.105651 -0.890172,1.669309 -0.131829,0.263128 -0.292468,0.584094 -0.380212,0.872664 -0.02355,0.07749 -0.02934,0.159293 -0.04402,0.23894 0.08305,0.409144 0.04439,0.106813 -0.872159,0.6301 -0.07561,0.04316 0.134905,-0.110175 0.199858,-0.168145 0.546079,-0.487389 -0.109892,0.07025 0.480817,-0.431176 0.09045,-0.07678 0.181864,-0.152432 0.272796,-0.228645 0.566626,-0.471559 1.166249,-0.901298 1.732229,-1.373867 0,0 1.123519,-0.442548 1.123519,-0.442548 z"
       inkscape:connector-curvature="0" />
    <path
       style="fill:#00000a;fill-opacity:1;stroke-width:0.26458332"
       id="path37"
       d="m 96.564875,50.145243 c 0.385741,-0.45757 0.734258,-0.945534 1.104905,-1.415785 0.362847,-0.474435 0.709909,-0.960557 1.070451,-1.436738 0.335103,-0.448281 0.716809,-0.85765 1.070782,-1.290389 0.292267,-0.403487 0.294807,-0.469604 1.185297,-0.516102 0.10831,-0.0057 -0.0608,0.208273 -0.0952,0.311113 -0.15297,0.456933 -0.33334,0.904521 -0.51193,1.351778 -0.24791,0.575717 -0.475463,1.164079 -0.802639,1.70121 -0.177581,0.291534 -0.211011,0.319119 -0.41682,0.582864 -0.396507,0.429826 -0.808254,0.848222 -1.254511,1.226714 -0.04953,0.03897 -0.09906,0.07795 -0.148595,0.116924 0,0 -1.114174,0.443979 -1.114174,0.443979 v 0 c 0.05227,-0.03848 0.104542,-0.07696 0.156814,-0.115435 0.460187,-0.365956 0.865915,-0.793258 1.278956,-1.210466 0.216267,-0.26081 0.244319,-0.279268 0.432149,-0.570537 0.341717,-0.529902 0.579636,-1.115642 0.827122,-1.693021 0.171352,-0.436946 0.204729,-0.509585 0.355542,-0.940435 0.04506,-0.128733 0.08897,-0.257895 0.130145,-0.387921 0.0295,-0.09317 0.0049,-0.221285 0.08185,-0.281541 0.336951,-0.263866 0.723071,-0.461396 1.107371,-0.649742 0.0604,-0.02958 -0.0779,0.109537 -0.1169,0.164308 -0.35442,0.434851 -0.73784,0.843963 -1.079247,1.289654 -0.36358,0.474519 -0.70843,0.96271 -1.069721,1.438912 -0.369499,0.463481 -0.729274,0.933453 -1.07238,1.417042 0,0 -1.119264,0.463614 -1.119264,0.463614 z"
       inkscape:connector-curvature="0" />
    <path
       style="fill:#00000a;fill-opacity:1;stroke-width:0.26458332"
       id="path39"
       d="m 92.314807,50.618278 c 0.289107,-0.165386 0.574241,-0.337926 0.867328,-0.496157 0.07544,-0.04073 -0.143868,0.09339 -0.213622,0.143232 -0.280109,0.200152 -0.54763,0.421651 -0.817748,0.63495 -0.32566,0.328385 -0.737949,0.546849 -1.087707,0.843671 -0.240591,0.210291 -0.329602,0.486098 -0.351772,0.795566 0.01937,0.432535 0.305139,0.545298 0.633796,0.760655 0.381117,0.264338 0.798507,0.441212 1.251368,0.532879 0.408176,0.05582 0.819957,0.06252 1.227394,0.125862 0.473358,0.05858 0.809718,0.316032 1.18395,0.584542 0.401328,0.298116 0.829119,0.556717 1.266661,0.797327 0.416552,0.236929 0.859041,0.398708 1.328999,0.484613 0.339215,0.05768 0.684194,0.05384 1.027041,0.05633 0.45965,0.01513 0.912781,0.0065 1.362721,-0.093 0.07107,-0.02885 0.144974,-0.05155 0.213234,-0.08655 0.0664,-0.03402 0.25522,-0.15403 0.18903,-0.119679 -0.28586,0.148352 -0.555979,0.327414 -0.848587,0.461965 -0.05898,0.02712 0.09646,-0.0873 0.139501,-0.135903 0.106217,-0.119954 0.114994,-0.157065 0.187566,-0.29623 0.16584,-0.430922 0.08221,-0.653219 -0.144277,-1.031973 -0.240146,-0.385506 -0.589394,-0.677606 -0.942086,-0.955799 -0.403844,-0.312897 -0.779304,-0.65913 -1.150009,-1.009971 -0.383974,-0.348088 -0.715505,-0.754917 -1.139825,-1.055356 -0.331115,-0.191109 -0.713319,-0.283912 -1.084897,-0.364956 -0.456729,-0.07773 -0.921147,-0.08675 -1.38325,-0.0942 -0.353862,-0.0083 -0.706885,0.0259 -1.055298,-0.04566 -0.320115,-0.143896 -0.651431,-0.235429 -0.997374,-0.287851 -0.272065,-0.02832 -0.548571,-0.06075 -0.821285,-0.02777 -0.03543,0.0064 -0.07288,0.0057 -0.106294,0.01913 -0.02825,0.01132 -0.100965,0.06771 -0.07418,0.05325 0.325432,-0.17562 0.637167,-0.377399 0.970714,-0.53707 0.03332,-0.01595 -0.03855,0.06338 -0.05259,0.09755 -0.0145,0.03528 -0.02172,0.07314 -0.03258,0.109704 0,0 -1.091647,0.522489 -1.091647,0.522489 v 0 c 0.0033,-0.01516 0.0499,-0.243256 0.06176,-0.25191 0.490964,-0.358286 0.777772,-0.683205 1.297361,-0.731256 0.278778,-0.0098 0.557128,0.01061 0.832535,0.0555 0.344879,0.062 0.67146,0.169516 1.000855,0.286872 0.34298,0.04982 0.690124,0.02387 1.035656,0.03701 0.468239,0.01169 0.939041,0.02513 1.400646,0.111709 0.38309,0.09095 0.777386,0.185587 1.10785,0.408348 0.417182,0.315891 0.755843,0.719799 1.142492,1.071081 0.370017,0.348109 0.747284,0.688705 1.150753,0.998137 0.35909,0.291981 0.71861,0.592847 0.96467,0.991373 0.24617,0.404585 0.35362,0.661847 0.20366,1.133777 -0.0634,0.149201 -0.075,0.20171 -0.17483,0.333174 -0.31626,0.416364 -0.979403,0.67751 -1.325616,0.8861 -0.06436,0.03878 -0.131109,0.07422 -0.200544,0.102936 -0.07314,0.03025 -0.150542,0.04892 -0.225816,0.07339 -0.457018,0.08228 -0.917591,0.08144 -1.380945,0.07627 -0.347149,-0.0011 -0.697056,-0.0032 -1.038051,-0.07673 -0.474141,-0.102664 -0.920395,-0.279869 -1.343223,-0.519428 -0.440343,-0.245597 -0.872059,-0.50633 -1.277586,-0.807053 -0.354629,-0.256297 -0.708149,-0.490246 -1.156618,-0.533855 -0.409297,-0.05553 -0.823362,-0.06154 -1.230291,-0.134369 -0.459131,-0.109037 -0.881978,-0.304014 -1.272328,-0.570695 -0.333066,-0.21589 -0.688653,-0.422902 -0.706112,-0.862886 0.0081,-0.326692 0.07422,-0.644229 0.315079,-0.882295 0.332314,-0.326748 0.779264,-0.510318 1.098177,-0.856848 0.698164,-0.559358 1.381381,-1.106136 2.208418,-1.484397 0,0 -0.942228,0.760431 -0.942228,0.760431 z"
       inkscape:connector-curvature="0" />
    <path
       style="fill:#00000a;fill-opacity:1;stroke-width:0.26458332"
       id="path41"
       d="m 86.051193,55.176962 c 0.47308,-0.507434 0.995693,-0.963335 1.544225,-1.386742 0.619546,-0.415142 0.417843,-0.288446 1.532183,-0.912244 0.18115,-0.101407 0.448549,-0.226438 0.66402,-0.217173 0.05319,0.0024 0.102473,0.02895 0.15371,0.04343 0.03306,0.05053 0.08339,0.09331 0.09918,0.151595 0.135281,0.499367 -0.564425,1.100305 -0.870331,1.388354 -0.552442,0.489855 -1.178915,0.87776 -1.795769,1.277792 -0.04378,0.0367 -0.09149,0.06917 -0.131334,0.110117 -0.187765,0.192963 0.559747,0.01143 0.562364,0.01085 0.400542,-0.111377 0.762396,-0.321345 1.140886,-0.487564 0.07347,-0.03227 0.145682,-0.06922 0.222996,-0.09073 0.05839,-0.01625 0.120351,-0.01434 0.180528,-0.02151 0.04233,0.0097 0.08931,0.0075 0.127002,0.02906 0.307824,0.176122 -0.14842,0.798113 -0.254026,0.974426 -0.355709,0.55694 -0.730774,1.101658 -1.024491,1.69478 -0.07056,0.174038 -0.107537,0.2496 -0.156376,0.426347 -0.112689,0.407813 0.0011,0.05318 -0.004,0.05534 -0.311544,0.129977 -0.583967,0.347763 -0.902607,0.459209 -0.101119,0.03537 0.153575,-0.149392 0.230362,-0.224089 0.63681,-0.655548 1.284965,-1.299835 1.924362,-1.95281 0.215747,-0.22174 0.434129,-0.440759 0.643139,-0.668933 0.05649,-0.06167 0.111487,-0.124701 0.167738,-0.186595 0.04395,-0.04836 0.07792,-0.10877 0.132858,-0.144153 0.357362,-0.230156 0.731972,-0.432361 1.097957,-0.648541 0.02418,0.05075 0.06947,0.09613 0.07254,0.152262 0.0049,0.09017 -0.141211,0.362156 -0.167801,0.413816 -0.169334,0.329012 -0.352079,0.651629 -0.528127,0.97707 -0.290476,0.513005 -0.517827,1.05442 -0.635625,1.632272 -0.03949,0.317776 0.05751,0.257461 -0.965131,0.515467 -0.09656,0.02437 0.114874,-0.162772 0.168966,-0.246385 0.168015,-0.259713 0.326988,-0.525169 0.491209,-0.7873 0.612963,-0.938196 0.853506,-1.535128 2.049767,-1.938607 0.07756,-0.02617 0.03999,0.15876 0.05998,0.238138 -0.212855,0.815745 -0.551585,1.59231 -0.897345,2.359001 -0.132591,0.2886 -0.26669,0.577175 -0.388374,0.870641 -0.07302,0.176112 -0.155781,0.355526 -0.163095,0.547854 0.09737,-0.467125 0.01217,0.102989 -0.830082,0.302363 -0.120867,0.02861 0.167259,-0.183891 0.244893,-0.280845 0.293799,-0.366924 0.5544,-0.762851 0.82569,-1.146352 0.569333,-0.804301 0.797669,-1.188437 1.888721,-1.520788 0.07186,-0.02188 0.05513,0.139756 0.0827,0.209635 -0.0024,0.09169 0.0027,0.183896 -0.0074,0.275061 -0.04098,0.371234 -0.166849,0.730575 -0.277164,1.084905 -0.151522,0.486685 -0.07215,0.222203 -0.208079,0.688221 -0.0819,0.351687 -0.192947,0.710118 -0.206036,1.074227 -0.0062,0.173522 -0.02895,0.150029 0.07373,0.167375 0.03473,-0.04585 0.158464,-0.156657 0.104203,-0.137556 -0.275814,0.0971 -0.500985,0.34177 -0.790971,0.37933 -0.134509,0.01741 0.177755,-0.204999 0.262516,-0.310885 0.2872,-0.358775 0.548342,-0.738532 0.815727,-1.112007 0.302538,-0.44255 0.674843,-0.849522 0.874432,-1.353426 0.09629,-0.424823 0.02912,-0.205121 1.070567,-0.502089 0.06599,-0.01881 -0.07859,0.11272 -0.112948,0.17213 -0.05124,0.08862 -0.09756,0.180038 -0.143565,0.271492 -0.117094,0.232775 -0.227166,0.469021 -0.341638,0.703098 -0.06111,0.116234 -0.12192,0.232627 -0.18333,0.348702 -0.147963,0.279681 -0.212122,0.38063 -0.333139,0.672886 -0.129114,0.311801 -0.212024,0.629446 -0.285092,0.95767 -0.01741,0.105304 -0.06365,0.362664 -0.07132,0.482145 -0.0021,0.03346 -0.0094,0.07084 0.0065,0.100372 0.0088,0.01643 0.03628,-0.06016 0.01921,-0.05259 -0.315614,0.140105 -0.601816,0.348753 -0.929791,0.456798 -0.09584,0.03157 0.139158,-0.146174 0.208738,-0.219263 0.453864,-0.537519 0.809974,-1.155443 1.308928,-1.654061 0.38935,-0.219125 0.762849,-0.469178 1.168056,-0.657376 0.104489,-0.04853 0.210013,0.164563 0.223234,0.204237 0.08573,0.257271 0.0039,0.572657 -0.03001,0.829662 -0.110371,0.641684 -0.208071,1.285103 -0.266147,1.933726 -0.0053,0.07868 -0.01146,0.157321 -0.01603,0.236053 -0.0026,0.04411 -0.02551,0.236863 0.007,0.309026 0.0051,0.01135 0.02413,-0.0404 0.01291,-0.03503 -0.345678,0.165639 -0.670184,0.376507 -1.025525,0.52025 -0.0518,0.02096 0.05975,-0.09443 0.08962,-0.141653 0.243932,-0.450977 0.444627,-0.922017 0.619844,-1.403252 0,0 1.071446,-0.499494 1.071446,-0.499494 v 0 c -0.175304,0.478888 -0.370395,0.949754 -0.595127,1.407838 -0.21654,0.539051 -0.06754,0.265289 -1.180676,0.788537 -0.138938,0.06531 -0.04179,-0.655304 -0.04774,-0.652428 0.06363,-0.650994 0.1709,-1.295625 0.273035,-1.941462 0.01357,-0.111593 0.05858,-0.446344 0.05942,-0.574675 8.2e-5,-0.01254 0.0019,-0.206732 -0.05882,-0.238604 -0.02447,-0.01286 -0.105844,0.01828 -0.0829,0.0028 0.285631,-0.192233 0.587103,-0.359815 0.880653,-0.539721 -0.06333,0.05435 -0.131646,0.103386 -0.189987,0.16306 -0.159843,0.163494 -0.306716,0.373182 -0.443259,0.553916 -0.232328,0.30752 -0.45742,0.619826 -0.687237,0.929209 -0.43829,0.532138 -0.282673,0.396997 -1.375598,0.911664 -0.03705,0.01744 -0.07382,-0.04579 -0.09033,-0.08326 -0.05689,-0.129064 0.08994,-0.49135 0.07867,-0.623163 0.134789,-0.628602 0.310208,-1.097505 0.615381,-1.664708 0.06194,-0.115133 0.123902,-0.230261 0.185854,-0.345392 0.30535,-0.626684 0.04739,-0.08836 0.327911,-0.698106 0.04169,-0.09061 0.08486,-0.180528 0.127508,-0.270693 0.029,-0.0613 0.02929,-0.148754 0.08741,-0.183697 0.368157,-0.221388 0.762542,-0.39792 1.158184,-0.565317 0.02577,-0.0109 -0.01103,0.05486 -0.01654,0.08229 -0.189214,0.529889 -0.583883,0.947295 -0.903224,1.400566 -0.179732,0.249301 -0.356767,0.500544 -0.536996,0.749486 -0.481237,0.66471 -1.045977,1.438997 -1.943044,1.543716 -0.0339,-0.03517 -0.08338,-0.06023 -0.101714,-0.105513 -0.04101,-0.101266 0.0016,-0.344807 0.01357,-0.430588 0.04057,-0.288028 0.09944,-0.573476 0.181689,-0.852607 0.19345,-0.647782 0.463939,-1.290923 0.498068,-1.972135 -0.03529,-0.443391 -0.02821,-0.07568 0.945446,-0.654137 0.05045,-0.02997 -0.101505,0.06062 -0.144433,0.100623 -0.256318,0.238842 -0.436092,0.553205 -0.653056,0.824008 -0.415951,0.583687 -0.129846,0.179549 -0.546986,0.775761 -0.01913,0.02734 -0.415623,0.60638 -0.484759,0.657426 -0.384191,0.28366 -0.782989,0.55222 -1.207275,0.771414 -0.04784,0.02471 -0.09595,-0.0489 -0.14392,-0.07336 0.01849,-0.505063 0.39325,-1.01687 0.570439,-1.479336 0.346144,-0.744519 0.682299,-1.496557 0.882732,-2.296115 0.31778,-0.203149 0.743648,-0.475996 0.984626,-0.602739 0.07599,-0.03997 -0.130689,0.112213 -0.187553,0.176538 -0.30031,0.33972 -0.517411,0.742347 -0.774576,1.113012 -0.351705,0.570952 -0.152535,0.238668 -0.463912,0.776401 -0.04868,0.08407 -0.06842,0.194318 -0.146722,0.251818 -0.368062,0.270271 -0.761836,0.50746 -1.168945,0.714285 -0.03248,0.01651 -0.05968,-0.05077 -0.06678,-0.0865 -0.0098,-0.04958 0.01315,-0.100248 0.01971,-0.15037 0.118343,-0.592834 0.344805,-1.14885 0.643797,-1.674765 0.172699,-0.319863 0.348565,-0.638675 0.511482,-0.9637 0.0363,-0.07243 0.0683,-0.146965 0.104807,-0.219292 0.02061,-0.04083 0.02748,-0.0961 0.06645,-0.120025 0.02082,-0.01278 0.03971,0.02844 0.05957,0.04266 0.318786,-0.191442 0.627509,-0.400735 0.956355,-0.574331 0.05962,-0.03147 -0.09563,0.09509 -0.141714,0.144288 -0.272999,0.291431 -0.536104,0.592143 -0.825981,0.867579 -0.641377,0.646907 -1.295728,1.280983 -1.916168,1.948405 -0.461878,0.505886 -0.380601,0.461722 -1.402932,0.932622 -0.04813,0.02217 -0.109122,-0.04582 -0.126916,-0.09573 -0.02878,-0.08071 0.166405,-0.52891 0.1918,-0.610298 0.290422,-0.598263 0.668152,-1.144868 1.023209,-1.705793 0.194654,-0.317082 0.113607,-0.173447 0.278154,-0.484087 0.0034,-0.0064 0.114896,-0.182324 0.103817,-0.24321 -0.0082,-0.0451 -0.135045,-0.03447 -0.133799,-0.03176 -0.53503,0.124728 -0.988362,0.487265 -1.532102,0.593929 -0.166666,0.02814 -0.311822,0.06959 -0.481367,0.03983 -0.131106,-0.02302 -0.347644,-0.142182 -0.24452,-0.314039 0.0327,-0.05449 0.09131,-0.08841 0.136959,-0.13262 0.620112,-0.406625 1.265092,-0.778272 1.8263,-1.26882 0.335759,-0.303527 0.727871,-0.623231 0.874702,-1.069885 0.01579,-0.04805 0.03253,-0.09865 0.02836,-0.149053 -0.0024,-0.02829 -0.03107,-0.04751 -0.0466,-0.07126 -0.04025,-0.0037 -0.08053,-0.01514 -0.120761,-0.01117 -0.354912,0.0348 -1.550874,0.735227 0.128813,-0.20162 0.09555,-0.05329 -0.185278,0.116409 -0.277913,0.174614 -0.543127,0.403154 -1.069179,0.839626 -1.510112,1.355159 0,0 -1.123739,0.465468 -1.123739,0.465468 z"
       inkscape:connector-curvature="0" />
    <path
       style="fill:#00000a;fill-opacity:1;stroke-width:0.26458332"
       id="path45"
       d="m 94.956248,56.610847 c 0.07931,0.585851 0.134286,1.174774 0.200694,1.762197 0.06113,0.532386 0.112522,1.065318 0.182841,1.596609 0.01061,0.05297 0.01611,0.10722 0.03182,0.158906 0.0082,0.02691 0.01397,0.06229 0.03918,0.07473 0.01487,0.0073 0.03986,-0.05017 0.02482,-0.04315 -0.337,0.157493 -0.642887,0.389292 -0.998567,0.498215 -0.07008,0.02146 0.04566,-0.139559 0.06126,-0.211174 0.02424,-0.111247 0.0387,-0.224399 0.05805,-0.3366 0.146497,-0.941547 -0.06731,-1.861617 -0.303109,-2.767526 -0.105619,-0.391549 -0.224452,-0.778566 -0.356558,-1.161839 0,0 1.031462,-0.567364 1.031462,-0.567364 v 0 c 0.121473,0.390811 0.23073,0.784778 0.339299,1.179388 0.239604,0.915617 0.459674,1.843879 0.345223,2.798178 -0.0132,0.111887 -0.02566,0.223866 -0.03961,0.335663 -0.0098,0.07818 0.02935,0.184219 -0.03151,0.234263 -0.336688,0.276846 -0.720823,0.49323 -1.104593,0.69992 -0.03001,0.01617 -0.06166,-0.03356 -0.08233,-0.06067 -0.05013,-0.06573 -0.06279,-0.206619 -0.07503,-0.274548 -0.05894,-0.535241 -0.110445,-1.070906 -0.165539,-1.606539 -0.06736,-0.579028 -0.114242,-1.161868 -0.225989,-1.73464 0,0 1.068179,-0.574022 1.068179,-0.574022 z"
       inkscape:connector-curvature="0" />
    <path
       style="fill:#00000a;fill-opacity:1;stroke-width:0.26458332"
       id="path47"
       d="m 93.046469,63.863947 c 0.332066,-0.386829 0.644504,-0.790316 1.012868,-1.143842 0.05165,0.23948 0.125926,-0.237995 0.166312,-0.169828 0.04647,0.07844 -0.09964,0.09842 -0.208762,0.126863 -0.103743,0.02704 -0.208142,0.0515 -0.312214,0.07725 -0.154408,0.04039 -0.308816,0.08079 -0.463224,0.121184 -0.51558,0.136081 -1.035227,0.258152 -1.558878,0.359191 -0.259204,0.05002 -0.605043,0.118107 -0.874088,0.115887 -0.124915,-0.0011 -0.248319,-0.02755 -0.372477,-0.04132 -0.102603,-0.04073 -0.212437,-0.06661 -0.307811,-0.122198 -0.562071,-0.327605 -0.54904,-0.994484 -0.513252,-1.559076 -0.02045,-0.119973 0.09992,-0.530172 -0.01114,-0.638882 -0.02032,-0.0199 -0.358945,0.04653 -0.373989,0.049 -0.06557,0.01177 -0.131148,0.02355 -0.196723,0.03533 0,0 0.956927,-0.720556 0.956927,-0.720556 v 0 c 0.06698,-0.01111 0.133966,-0.0222 0.200951,-0.03331 0.150841,-0.01693 0.362632,-0.06709 0.470738,0.08738 0.134298,0.191889 -0.01847,0.493983 0.0021,0.6964 -0.04329,0.507111 -0.08476,1.140849 0.443926,1.424659 0.0885,0.04751 0.189336,0.06717 0.284004,0.100753 0.117991,0.0094 0.235619,0.02974 0.35397,0.02813 0.257236,-0.0035 0.607224,-0.07032 0.854527,-0.117907 0.523674,-0.100771 1.0428,-0.224626 1.556885,-0.366231 0.161179,-0.04463 0.321908,-0.09092 0.483537,-0.133895 0.1543,-0.04103 0.579702,-0.221829 0.693775,0.01529 0.03264,0.06785 -0.164743,0.209511 -0.168979,0.213265 -0.378116,0.332277 -0.692182,0.724977 -1.000602,1.121323 0,0 -1.118306,0.475141 -1.118306,0.475141 z"
       inkscape:connector-curvature="0" />
    <path
       style="fill:#00000a;fill-opacity:1;stroke-width:0.26458332"
       id="path49"
       d="m 87.310522,57.576746 c 0.04977,0.22307 0.09543,0.447109 0.131747,0.672801 0.0222,0.137991 0.03746,0.314288 0.08423,0.449323 0.01669,0.04819 0.04672,0.09065 0.07009,0.135977 0.299114,-0.397645 -0.111765,0.177692 -0.847651,0.357794 -0.09091,0.02225 0.09063,-0.165312 0.117883,-0.254855 0.111625,-0.36672 0.05628,-0.727075 0.0029,-1.096494 -0.02498,-0.08711 -0.04257,-0.176675 -0.0749,-0.261326 -0.01699,-0.04444 -0.03663,-0.09142 -0.07199,-0.123243 -0.01169,-0.0105 -0.05667,0.02717 -0.04265,0.02008 1.054629,-0.533879 1.150985,-0.863024 0.962546,-0.383032 0,0 -1.087774,0.520133 -1.087774,0.520133 v 0 c 0.0081,-0.05403 -0.01987,-0.130151 0.02445,-0.162099 0.409294,-0.294934 1.059521,-1.076762 1.258038,-0.437229 0.02846,0.09168 0.04475,0.186708 0.06713,0.280061 0.04377,0.287081 0.08817,0.493485 0.07996,0.786683 -0.01923,0.687409 -0.521108,1.646949 -1.433984,1.347975 -0.02551,-0.05451 -0.05755,-0.106412 -0.0765,-0.163531 -0.118813,-0.358042 -0.08786,-0.756679 -0.225636,-1.111697 0,0 1.062156,-0.577318 1.062156,-0.577318 z"
       inkscape:connector-curvature="0" />
    <path
       style="fill:#00000a;fill-opacity:1;stroke-width:0.26458332"
       id="path51"
       d="m 85.302327,55.854864 c -0.0042,0.309793 -0.02939,0.621361 0.0077,0.93024 0.03277,0.272675 0.05924,0.331767 0.131336,0.599583 0.239184,0.701935 0.589402,1.357009 0.87598,2.039459 0.195469,0.547539 0.44408,1.066501 0.759312,1.554353 0.182086,0.250619 0.32027,0.536985 0.550042,0.750035 0.12481,0.115729 0.263655,0.206704 0.40208,0.304758 0.393104,0.28443 0.842941,0.503613 1.173297,0.867709 0.05296,0.05837 0.0974,0.123934 0.146106,0.185899 0.228176,0.339386 0.27763,0.734467 0.29868,1.132186 -0.02344,0.275477 0.06776,0.58873 -0.03518,0.855147 -0.01513,0.03916 -0.04124,0.07314 -0.06186,0.109704 -0.380645,0.222927 -0.744736,0.476898 -1.141936,0.668785 -0.08565,0.04138 -0.368113,-0.121058 -0.404101,-0.142145 -0.310216,-0.181774 -0.575781,-0.430167 -0.846352,-0.663797 -0.528465,-0.479176 -1.033169,-0.984356 -1.541182,-1.485146 -0.436359,-0.470149 -0.920104,-0.879864 -1.448311,-1.241848 -0.600413,-0.393984 -1.22664,-0.74616 -1.807032,-1.170533 -0.399897,-0.341635 -0.811536,-0.66371 -1.243449,-0.963639 -0.282557,-0.217016 -0.568577,-0.43253 -0.78553,-0.719598 -0.1715,-0.226922 -0.198202,-0.314034 -0.325077,-0.572743 -0.261245,-0.686703 -0.336662,-1.42045 -0.389414,-2.147504 0.01162,-0.304797 -0.112258,-0.748012 0.05809,-1.022612 0.02254,-0.03633 0.05553,-0.065 0.0833,-0.0975 0.501894,-0.307518 1.031642,-0.749118 1.661279,-0.719945 0.136713,0.0063 0.261152,0.04414 0.39302,0.07653 0.422781,0.09138 0.812954,0.261178 1.182661,0.481729 0.311185,0.202827 0.658583,0.267713 1.020993,0.301175 0.265509,0.02072 0.510132,0.09269 0.659559,0.323514 0.06901,0.139602 0.06843,0.292031 0.06765,0.443831 -2.54e-4,0.185314 -0.01556,0.371229 5.29e-4,0.556098 0.02793,0.104495 0.0081,0.05573 0.0579,0.14686 0,0 -1.053742,0.604777 -1.053742,0.604777 v 0 c -0.06477,-0.119513 -0.03805,-0.0571 -0.07993,-0.18732 -0.02761,-0.188105 -0.0046,-0.379195 -0.0091,-0.568899 0.0013,-0.127685 0.01111,-0.259927 -0.03466,-0.381646 -0.125505,-0.197326 -0.371684,-0.217667 -0.585105,-0.242803 -0.37569,-0.04333 -0.730118,-0.130487 -1.049549,-0.344169 -0.362323,-0.212604 -0.747872,-0.365411 -1.160749,-0.450075 -0.153355,-0.02852 -0.221448,-0.05034 -0.375525,-0.04529 -0.508217,0.01667 -1.276176,0.521142 0.425278,-0.450855 -0.07817,0.05112 -0.134967,0.07397 -0.179692,0.163451 -0.110061,0.220208 -0.01087,0.628992 -0.03232,0.87004 0.03615,0.71387 0.100788,1.436426 0.362974,2.108264 0.119645,0.237955 0.152958,0.334896 0.314904,0.54234 0.215609,0.276188 0.501891,0.481288 0.777971,0.691179 0.431265,0.300294 0.832731,0.63386 1.233453,0.973307 0.579062,0.423103 1.200263,0.778878 1.800444,1.169969 0.537163,0.362347 1.024771,0.780079 1.464702,1.257043 0.503092,0.500338 0.999305,1.009005 1.526789,1.483694 0.264541,0.222136 0.531238,0.470439 0.847412,0.619876 0.0662,0.03129 0.135742,0.05968 0.208246,0.06994 0.04981,0.007 0.190772,-0.04833 0.149691,-0.01929 -0.29277,0.206936 -0.611458,0.374521 -0.917186,0.56178 0.02692,-0.02405 0.0599,-0.04268 0.08076,-0.07214 0.132963,-0.187775 0.0428,-0.598734 0.06291,-0.819647 -0.01625,-0.373301 -0.04826,-0.74857 -0.257791,-1.070867 -0.04478,-0.05797 -0.08542,-0.119399 -0.13435,-0.173913 -0.324033,-0.360982 -0.771451,-0.57644 -1.161386,-0.853419 -0.151098,-0.107143 -0.286504,-0.194474 -0.420749,-0.322583 -0.231338,-0.220766 -0.3737,-0.512275 -0.557334,-0.769768 -0.316653,-0.496202 -0.564081,-1.023908 -0.753364,-1.581952 -0.281932,-0.689512 -0.642903,-1.344059 -0.890524,-2.047853 -0.07618,-0.266999 -0.108103,-0.343988 -0.147455,-0.616371 -0.04439,-0.307266 -0.02061,-0.617067 -0.03748,-0.92591 0,0 1.082336,-0.551476 1.082336,-0.551476 z"
       inkscape:connector-curvature="0" />
    <path
       style="fill:#00000a;fill-opacity:1;stroke-width:0.26458332"
       id="path53"
       d="m 88.947534,62.417382 c 0.325869,0.348324 0.668737,0.680022 1.017532,1.005187 0.304006,0.256058 0.620861,0.501941 1.004115,0.621332 0.312904,0.06375 0.634148,0.06059 0.952008,0.05912 0.0497,-2.64e-4 0.09994,0.0063 0.149103,-0.0011 0.07773,-0.01159 0.24298,-0.07418 0.310335,-0.109866 0.05134,-0.0272 0.197548,-0.122184 0.146436,-0.09455 -0.897988,0.485471 -1.149932,0.739611 -0.790109,0.399957 0.159001,-0.179041 0.237712,-0.401127 0.200798,-0.63886 -0.04691,-0.180374 -0.255379,-0.165007 -0.408393,-0.175953 -0.30753,-0.0052 -0.612957,-0.0048 -0.919144,-0.03639 -0.124441,-7.93e-4 -0.229436,-0.03535 -0.337547,-0.09148 0,0 1.012349,-0.671187 1.012349,-0.671187 v 0 c 0.09955,0.03793 0.200443,0.05858 0.307652,0.06357 0.307824,0.02909 0.616042,0.01455 0.924433,0.03316 0.211021,0.02784 0.430389,0.07315 0.490984,0.308332 0.05406,0.264467 5.3e-4,0.52424 -0.158207,0.744828 -0.393168,0.453922 -0.08567,0.122958 -1.257279,0.819743 -0.196564,0.116904 -0.418851,0.170064 -0.6467,0.157713 -0.326789,-0.0044 -0.658455,-0.0016 -0.975677,-0.09144 -0.384477,-0.148553 -0.705993,-0.406501 -1.016987,-0.672521 -0.348639,-0.329697 -0.692388,-0.664448 -1.038659,-0.996627 0,0 1.032957,-0.633 1.032957,-0.633 z"
       inkscape:connector-curvature="0" />
    <path
       style="fill:#00000a;fill-opacity:1;stroke-width:0.26458332"
       id="path55"
       d="m 81.103652,61.452989 c -0.05068,0.05834 -0.100024,0.117864 -0.152027,0.175022 -0.588973,0.647338 0.175381,-0.209216 -0.490699,0.515948 -0.28711,0.312576 -0.548355,0.646012 -0.812059,0.978133 -0.367554,0.440772 -0.710618,0.896967 -0.943505,1.423578 -0.17821,0.435565 0.0831,0.58053 0.406684,0.823695 0.460539,0.37701 0.933524,0.568211 1.507569,0.699781 0.696918,0.08173 1.362554,0.308006 2.01145,0.565581 0.421484,0.189381 0.87037,0.310584 1.291748,0.499922 0.17933,0.08058 0.329428,0.167167 0.500968,0.261327 0.354488,0.195738 0.650991,0.471746 0.969637,0.716698 0.03298,0.01302 0.06351,0.04053 0.09892,0.03903 0.0321,-0.0013 0.113139,-0.06088 0.08427,-0.04678 -0.315431,0.154037 -0.609423,0.360629 -0.944062,0.46665 -0.06724,0.0213 0.06236,-0.127068 0.08406,-0.19418 0.06337,-0.196009 0.07929,-0.363948 0.109842,-0.56783 0.0569,-0.56115 -0.109088,-1.076098 -0.413102,-1.540174 -0.282038,-0.363842 -0.645999,-0.644705 -0.999075,-0.934548 -0.495599,-0.339016 -0.853588,-0.81856 -1.196496,-1.302599 -0.343744,-0.48795 -0.556241,-1.041027 -0.676344,-1.621825 -0.05957,-0.332557 -0.0659,-0.670033 -0.06589,-1.006718 -1.45e-4,-0.23531 0.0026,-0.470599 0.0037,-0.705906 -0.0082,-0.08216 -0.04363,-0.137125 -0.122375,-0.168968 -0.02109,-0.0085 -0.04462,-0.01807 -0.0669,-0.01347 -0.02029,0.0042 -0.06778,0.04738 -0.04953,0.03757 0.333068,-0.178929 0.663062,-0.363516 0.99459,-0.545274 -0.07885,0.08058 -0.09229,0.184714 -0.114459,0.290253 0,0 -1.086162,0.530704 -1.086162,0.530704 v 0 c 0.01598,-0.121478 0.033,-0.242337 0.07505,-0.358288 0.310181,-0.18238 1.233183,-1.125635 1.45043,-0.322255 -0.0021,0.236202 -0.0052,0.472372 -0.0097,0.708536 -0.0021,0.330822 -0.0033,0.663093 0.04523,0.991219 0.101971,0.569545 0.295968,1.111814 0.634698,1.586984 0.341329,0.476076 0.706684,0.932611 1.194655,1.267241 0.362037,0.298397 0.735227,0.586975 1.020011,0.965173 0.310118,0.48967 0.483516,1.034018 0.441788,1.620036 -0.01249,0.103161 -0.07136,0.7371 -0.15172,0.801798 -8.5e-5,6.9e-5 -0.829072,0.867842 -1.253122,0.729319 -0.04061,-0.01326 -0.07437,-0.04208 -0.111556,-0.06312 -0.301916,-0.252198 -0.593784,-0.519268 -0.941213,-0.710271 -0.178763,-0.09848 -0.299506,-0.169637 -0.487543,-0.253621 -0.419459,-0.187344 -0.862107,-0.319363 -1.282668,-0.504243 -0.651097,-0.2519 -1.317919,-0.455798 -2.012717,-0.545182 -0.581655,-0.146794 -1.070412,-0.355539 -1.540777,-0.736124 -0.336042,-0.254108 -0.673471,-0.494086 -0.490773,-0.959697 0.234,-0.543472 0.578868,-1.017915 0.963125,-1.465887 0.450313,-0.566793 0.907987,-1.124442 1.412576,-1.644324 0,0 1.113491,-0.482918 1.113491,-0.482918 z"
       inkscape:connector-curvature="0" />
    <path
       style="fill:#00000a;fill-opacity:1;stroke-width:0.26458332"
       id="path57"
       d="m 86.718975,65.126972 c -0.02389,0.559581 -0.0043,1.119836 -0.02188,1.679456 -0.02027,0.251344 -0.0783,0.497174 -0.14822,0.738743 -0.01548,0.05349 -0.0054,0.126495 -0.05048,0.159248 -0.338024,0.245837 -0.676598,0.511635 -1.069184,0.655063 -0.07787,0.02845 -0.06477,-0.152635 -0.09715,-0.228954 -0.08974,-0.698035 -0.0031,-1.396569 0.176065,-2.072505 0.05969,-0.162449 0.08797,-0.25817 0.165221,-0.406604 0.245087,-0.470903 0.724596,-0.60683 1.234864,-0.85734 0.03144,-0.01542 0.05244,0.04644 0.07867,0.06966 0,0 -1.021715,0.668396 -1.021715,0.668396 v 0 c -0.143696,0.37909 -7.94e-4,-0.01249 0.968023,-0.563954 0.03123,-0.01778 -0.05362,0.04809 -0.07741,0.07501 -0.130241,0.147423 -0.206243,0.327493 -0.27981,0.507778 -0.199562,0.646234 -0.295712,1.323782 -0.187645,1.997567 -0.02373,0.430048 0.0046,0.174416 -0.979789,0.665398 -0.05007,0.02498 0.04277,-0.1035 0.06092,-0.156435 0.07969,-0.23245 0.138954,-0.472427 0.167992,-0.716627 0.02822,-0.553778 0.01532,-1.109109 7.94e-4,-1.6632 0,0 1.08081,-0.550701 1.08081,-0.550701 z"
       inkscape:connector-curvature="0" />
    <path
       style="fill:#00000a;fill-opacity:1;stroke-width:0.26458332"
       id="path59"
       d="m 80.065096,67.047591 c 0.310639,0.3654 0.647808,0.707138 0.977077,1.055658 0.342519,0.323249 0.66943,0.661771 0.996415,1.00058 0.249979,0.22438 0.470565,0.479031 0.671619,0.747546 0.123608,0.169918 0.207214,0.367445 0.416369,0.439764 0.330049,0.061 0.671209,0.0478 1.005806,0.0498 0.536567,-1.48e-4 1.073131,-2.15e-4 1.609693,-0.0013 0.581673,-7.94e-4 1.163344,-7.94e-4 1.745017,-0.0013 0.454856,-0.0026 0.909736,-0.0011 1.364589,-0.0044 0.19101,-0.03004 0.497787,0.05336 0.670724,-0.03516 0.03983,-0.02037 0.07275,-0.05212 0.10913,-0.07818 -1.578155,0.93292 -0.896554,0.608639 -0.644689,0.172691 0.115863,-0.200555 0.181168,-0.412735 0.241673,-0.634302 0.118523,-0.464378 0.158467,-0.942038 0.183845,-1.418958 0.02698,-0.387776 0.0072,-0.773774 -0.02711,-1.160023 -0.03843,-0.342553 -0.100769,-0.68531 -0.268407,-0.989335 -0.109699,-0.154329 -0.05143,-0.07851 -0.175183,-0.227171 0,0 1.033799,-0.620194 1.033799,-0.620194 v 0 c 0.13159,0.159972 0.06874,0.0778 0.188573,0.246515 0.171088,0.320571 0.238382,0.677791 0.286221,1.035703 0.03421,0.392322 0.06065,0.783577 0.02943,1.177507 -0.02363,0.483642 -0.06663,0.967745 -0.175282,1.440693 -0.0702,0.304988 -0.165568,0.603771 -0.338944,0.868365 -0.03703,0.05651 -0.06778,0.122635 -0.123679,0.160587 -0.37224,0.25273 -0.767395,0.469942 -1.151091,0.70491 -0.04458,0.01736 -0.08741,0.04019 -0.133755,0.05205 -0.216943,0.05551 -0.456996,-0.01712 -0.676619,0.01003 -0.450795,-0.0033 -0.901613,-0.0019 -1.35241,-0.0044 -0.581387,-5.3e-4 -1.162772,-2.57e-4 -1.74416,0.0011 -0.538832,0.0011 -1.077656,0.0051 -1.61649,0.0052 -0.348901,-0.0011 -0.715896,0.02805 -1.052079,-0.07881 -0.209343,-0.111773 -0.315513,-0.302567 -0.443301,-0.495864 -0.195339,-0.266041 -0.413927,-0.51485 -0.655717,-0.739799 -0.322591,-0.342548 -0.649549,-0.680571 -0.990502,-1.004995 -0.328639,-0.349669 -0.659702,-0.696778 -0.993529,-1.041432 0,0 1.03296,-0.633 1.03296,-0.633 z"
       inkscape:connector-curvature="0" />
    <path
       style="fill:#00000a;fill-opacity:1;stroke-width:0.26458332"
       id="path61"
       d="m 76.526786,67.407239 c -0.550418,0.282842 0.478446,-0.291015 0.727451,-0.418518 0.0561,-0.02873 -0.103466,0.0734 -0.146857,0.119115 -0.171167,0.180335 -0.229463,0.407527 -0.295932,0.638974 -0.103917,0.49516 -0.130444,1.004697 -0.113305,1.509411 0.02397,0.302628 0.105381,0.615315 0.409612,0.744278 0.06032,0.02559 0.124878,0.0397 0.187317,0.05955 0.493176,0.122169 0.995223,0.0031 1.484657,-0.07964 0.45154,-0.06024 1.138465,-0.468056 -0.513522,0.401828 -0.04787,0.02522 0.0901,-0.06048 0.130593,-0.09635 0.06911,-0.06123 0.125383,-0.137298 0.182518,-0.209167 0.305813,-0.360545 0.209677,-0.261681 1.149254,-0.637164 0.04065,-0.01624 0.04467,0.07532 0.06585,0.113631 0.06021,0.108923 0.110445,0.19227 0.198639,0.281328 0.364535,0.249172 0.601398,0.163553 0.975773,-0.02087 -1.52685,0.886383 -0.393248,0.261831 -0.187825,-0.213477 0.06939,-0.160546 0.04104,-0.176416 -2.65e-4,-0.322765 -0.213672,-0.198281 -0.542589,-0.296616 -0.828262,-0.19423 -0.07818,0.02802 -0.288422,0.164613 -0.214516,0.126724 0.278249,-0.14265 0.551897,-0.294105 0.827846,-0.441158 -0.299997,0.325641 -0.458766,0.699302 -0.372853,1.142362 0.07991,0.172115 0.230333,0.279006 0.418457,0.179584 0.05511,-0.02913 0.206698,-0.137981 0.150524,-0.110961 -0.28961,0.139298 -0.568804,0.299294 -0.853204,0.448939 0.179715,-0.221514 0.419269,-0.514942 0.30499,-0.824097 -0.06443,-0.174302 -0.162134,-0.2159 -0.30276,-0.324578 -0.349914,-0.155752 -0.74504,-0.203631 -1.108205,-0.05782 -0.08266,0.03319 -0.313877,0.168643 -0.235338,0.126617 0.275029,-0.147169 0.549867,-0.294693 0.824801,-0.44204 -0.144629,0.165135 -0.399643,0.438463 -0.314613,0.689677 0.03699,0.109296 0.136472,0.142472 0.225314,0.194929 0.05845,0.02201 0.115477,0.04827 0.175365,0.066 0.104262,0.03087 0.301747,0.0709 0.411155,0.06103 0.07114,-0.0064 0.268383,-0.09086 0.207483,-0.05354 -1.068464,0.654854 -0.987811,0.612034 -0.646035,0.232466 0.04444,-0.08912 0.108108,-0.171011 0.133321,-0.267349 0.107931,-0.412424 -0.111139,-0.865108 -0.401918,-1.146611 -0.06698,-0.06484 -0.147252,-0.114364 -0.220877,-0.171546 -0.1607,-0.05546 -0.284152,-0.129831 -0.459896,-0.07591 -0.06688,0.02053 -0.238816,0.145047 -0.175776,0.114702 0.293764,-0.141409 0.561493,-0.340722 0.869193,-0.448492 0.06954,-0.02437 -0.08606,0.12029 -0.119525,0.185928 -0.03472,0.06809 -0.05602,0.142227 -0.08403,0.213341 -0.07005,0.313394 -0.232495,0.737524 0.03642,1.006279 0.04839,0.04836 0.11266,0.07767 0.168987,0.116507 0.516258,0.197535 1.074455,0.227319 1.610003,0.348954 0.407667,0.131492 0.507503,0.413155 0.638903,0.780288 0.240167,0.59333 0.44492,1.195506 0.595735,1.817669 0.03658,0.110752 0.07299,0.60293 0.229013,0.63705 0.05775,0.01262 0.145907,-0.103976 0.163097,-0.12175 -0.306049,0.168243 -0.597379,0.36659 -0.918141,0.504729 -0.05676,0.02445 0.07471,-0.09914 0.103415,-0.15386 0.136729,-0.260639 0.151567,-0.53779 0.133787,-0.824307 -0.04188,-0.122727 -0.04779,-0.203361 -0.157711,-0.286398 -0.219334,-0.165695 -0.625382,-0.212934 -0.887878,-0.24529 -0.242239,0.01045 -0.23119,-0.0081 -0.451426,0.06634 -0.05589,0.01889 -0.213837,0.09887 -0.163066,0.06882 0.312357,-0.175641 0.624713,-0.351284 0.93707,-0.526925 -0.0415,0.0235 -0.0389,0.01961 0.01392,0.0021 0.611962,7.94e-4 2.021967,-0.846187 0.253219,0.117023 0.06397,-0.06265 0.185521,-0.158356 0.205976,-0.25944 0.06435,-0.317981 -0.576162,-0.599525 -0.774192,-0.702045 -0.26212,-0.101545 -0.485273,-0.199284 -0.760225,-0.261948 -0.122065,-0.02782 -0.247494,-0.03797 -0.371242,-0.05695 0,0 0.958789,-0.672089 0.958789,-0.672089 v 0 c 0.397481,0.07484 0.782725,0.171844 1.149207,0.350779 0.294762,0.154419 0.901772,0.425048 0.89271,0.842915 -0.0028,0.129738 -0.116317,0.229701 -0.190014,0.316553 -0.519157,0.314184 -1.457885,1.013655 -2.202153,1.016714 -0.06153,2.51e-4 -0.121169,-0.02146 -0.181753,-0.0322 -0.03923,-0.03695 -0.0918,-0.06359 -0.117702,-0.110842 -0.01836,-0.03351 -0.03752,-0.09315 -0.0058,-0.114507 0.3513,-0.236646 0.979082,-0.701886 1.523415,-0.734478 0.08436,-0.0051 0.168984,0.0037 0.253479,0.0055 0.312309,0.04771 0.698582,0.0975 0.949142,0.314266 0.125555,0.10862 0.13625,0.202407 0.188471,0.351145 0.02566,0.309946 0.01201,0.591733 -0.101391,0.885489 -0.02429,0.0629 -0.0292,0.144227 -0.08347,0.184248 -0.360053,0.265554 -0.757225,0.476692 -1.135838,0.715039 -0.04591,0.01262 -0.09013,0.0391 -0.137724,0.03789 -0.316862,-0.0081 -0.305781,-0.557057 -0.357677,-0.752158 -0.135593,-0.620834 -0.333121,-1.219925 -0.602128,-1.79664 -0.127357,-0.330856 -0.191301,-0.574693 -0.570841,-0.682757 -0.547187,-0.123312 -1.120762,-0.158197 -1.637776,-0.389752 -0.0647,-0.0505 -0.138359,-0.09127 -0.194106,-0.151514 -0.292058,-0.315627 -0.159732,-0.736645 -0.08312,-1.105744 0.0205,-0.06339 0.116599,-0.397534 0.179731,-0.445489 0.369861,-0.280969 0.772052,-0.51742 1.171157,-0.755029 0.06282,-0.0374 0.13612,-0.06047 0.208976,-0.06665 0.07964,-0.0067 0.161295,0.0065 0.238059,0.02878 0.08981,0.02606 0.170706,0.0764 0.256058,0.114596 0.07704,0.06454 0.161044,0.121563 0.231119,0.193598 0.307859,0.316469 0.540665,0.810496 0.46309,1.262118 -0.01781,0.103699 -0.07777,0.195535 -0.116655,0.293304 -0.05489,0.0764 -0.08692,0.176239 -0.164661,0.229209 -0.878218,0.598387 -1.217541,0.979564 -2.084655,0.578403 -0.129145,-0.09229 -0.222967,-0.128913 -0.282109,-0.287298 -0.106365,-0.284842 0.121846,-0.589132 0.274839,-0.802976 0.761023,-0.465259 1.421574,-1.123273 2.351846,-0.825722 0.09763,0.03123 0.187344,0.08323 0.281014,0.124851 0.168889,0.141677 0.264909,0.185317 0.34942,0.397198 0.137242,0.344085 -0.06384,0.658162 -0.25441,0.930563 -0.394838,0.252662 -0.784408,0.513747 -1.184514,0.757979 -0.291721,0.178072 -0.566631,0.0348 -0.696343,-0.254775 -0.01296,-0.06009 -0.03334,-0.119039 -0.03892,-0.180256 -0.03571,-0.391514 0.136377,-0.781709 0.366114,-1.086141 0.402826,-0.248195 0.798849,-0.507791 1.20848,-0.744588 0.07456,-0.0431 0.156612,-0.07582 0.240945,-0.09328 0.246094,-0.05097 0.546796,0.0176 0.752642,0.159047 0.0661,0.04543 0.115546,0.111273 0.173318,0.166907 0.0204,0.06414 0.05602,0.12532 0.06117,0.192429 0.0213,0.277751 -0.17367,0.49853 -0.349224,0.684194 -0.07413,0.0784 -0.140382,0.16819 -0.231036,0.226692 -0.41451,0.26748 -0.851787,0.497917 -1.277679,0.746876 -0.0873,0.03448 -0.171566,0.07793 -0.261897,0.103439 -0.296207,0.08363 -0.582171,-0.0024 -0.815748,-0.190084 -0.01804,-0.01942 -0.255389,-0.299054 -0.228039,-0.31522 1.524918,-0.901385 1.325155,-0.777025 0.959022,-0.546909 -0.06202,0.07614 -0.11348,0.160842 -0.178871,0.234116 -0.03747,0.04199 -0.07605,0.08531 -0.124326,0.114237 -0.677798,0.406125 -0.927528,0.661955 -1.560859,0.745865 -0.50438,0.08042 -1.022053,0.184471 -1.524404,0.03425 -0.06805,-0.02633 -0.139248,-0.04563 -0.204148,-0.07897 -0.323514,-0.166201 -0.434329,-0.508628 -0.462393,-0.8493 -0.02103,-0.515665 0.01249,-1.034743 0.101782,-1.543243 0.05854,-0.238088 0.107199,-0.496379 0.25821,-0.698124 0.03899,-0.05209 0.08404,-0.102333 0.13921,-0.136814 0.983785,-0.61487 0.798055,-0.528566 1.348055,-0.760288 0,0 -0.957255,0.743686 -0.957255,0.743686 z"
       inkscape:connector-curvature="0" />
    <path
       style="fill:#00000a;fill-opacity:1;stroke-width:0.26458332"
       id="path63"
       d="m 78.065005,66.718827 c 0.304932,0.216848 0.559874,0.472895 0.736819,0.803109 0.08509,0.17445 0.124897,0.362362 0.153813,0.552569 0,0 -1.070684,0.563718 -1.070684,0.563718 v 0 c -0.02072,-0.178059 -0.05077,-0.354523 -0.126802,-0.518866 -0.1652,-0.316841 -0.411278,-0.55929 -0.717282,-0.744786 0,0 1.024136,-0.655744 1.024136,-0.655744 z"
       inkscape:connector-curvature="0" />
    <path
       style="fill:#00000a;fill-opacity:1;stroke-width:0.26458332"
       id="path65"
       d="m 73.574809,70.381293 c -0.633913,-0.01032 -1.269027,-0.02424 -1.902577,0.0042 -0.256082,0.01667 -0.531992,0.02463 -0.774057,0.123881 -0.0641,0.02627 -0.240533,0.137581 -0.179623,0.104571 0.910744,-0.49358 1.121421,-0.727096 0.777147,-0.378677 -0.189894,0.281509 -0.18711,0.62969 -0.19536,0.956868 0.02283,0.237795 -0.05306,0.500211 0.0423,0.728025 0.04794,0.11452 0.114477,0.162293 0.201041,0.248465 0.322472,0.275664 0.712544,0.405765 1.122717,0.478563 0.272627,0.05467 0.554757,0.02217 0.828085,0.06678 0.178612,0.02915 0.233958,0.06002 0.404971,0.124331 0.448178,0.228954 0.820214,0.580898 1.177634,0.929775 0.452726,0.403915 0.854308,0.855281 1.208434,1.346901 0.288859,0.530248 0.582234,1.057092 0.88859,1.577525 0.310285,0.476305 0.638977,0.537919 1.172313,0.606398 0.496592,0.04736 0.996003,0.04148 1.494187,0.03665 0.301112,0.0033 0.617638,-0.0016 0.8964,-0.134877 0.05559,-0.02656 0.10426,-0.06567 0.156388,-0.09851 -1.595178,0.966645 -0.834176,0.510183 -0.530363,0.176787 0.150106,-0.164724 0.277601,-0.345842 0.401902,-0.530074 0.251407,-0.424355 0.44445,-0.88111 0.585862,-1.352979 0.108495,-0.393829 0.127188,-0.802182 0.137144,-1.208085 5.29e-4,-0.05866 7.94e-4,-0.117324 0.0013,-0.175984 0,0 1.071263,-0.544283 1.071263,-0.544283 v 0 c -7.93e-4,0.05944 -0.0019,0.118883 -0.0027,0.178321 -0.0097,0.415624 -0.02421,0.834139 -0.129141,1.238872 -0.137168,0.48082 -0.332285,0.943645 -0.569365,1.383898 -0.163131,0.259339 -0.343635,0.509873 -0.557718,0.730369 -0.05025,0.05176 -0.09647,0.109868 -0.1573,0.148648 -0.387979,0.247349 -0.790236,0.471554 -1.185351,0.707332 -0.353344,0.16542 -0.698011,0.204317 -1.086594,0.184692 -0.498485,-2.06e-4 -0.998516,-0.0011 -1.494462,-0.05729 -0.571648,-0.08459 -0.911164,-0.184351 -1.234453,-0.694828 -0.295891,-0.521859 -0.585835,-1.046019 -0.871477,-1.573466 -0.352869,-0.485331 -0.761224,-0.921057 -1.206127,-1.323853 -0.350652,-0.334185 -0.711073,-0.67894 -1.156946,-0.88178 -0.181493,-0.05784 -0.204218,-0.07433 -0.389742,-0.09857 -0.276674,-0.03614 -0.559667,-0.01873 -0.833921,-0.07822 -0.427567,-0.08984 -0.832043,-0.244491 -1.165604,-0.536776 -0.04612,-0.04784 -0.09777,-0.0909 -0.138353,-0.143518 -0.205901,-0.266909 -0.145743,-0.602671 -0.150931,-0.916456 0.0036,-0.349105 0.0013,-0.70906 0.15553,-1.031013 0.373615,-0.482316 0.09846,-0.159064 1.267388,-0.837565 0.288923,-0.167703 0.651687,-0.155408 0.972111,-0.178694 0.642988,-0.01786 1.286351,0.0019 1.929358,-0.01839 0,0 -0.979972,0.711991 -0.979972,0.711991 z"
       inkscape:connector-curvature="0" />
    <path
       style="fill:#00000a;fill-opacity:1;stroke-width:0.26458332"
       id="path67"
       d="m 78.444891,73.920526 c 0.349043,0.0011 0.70295,0.02564 1.049036,-0.03524 0.09883,-0.01738 0.195357,-0.04596 0.293036,-0.06894 0.609963,-0.186491 1.178605,-0.476525 1.785578,-0.671261 0.280389,-0.08174 0.145587,-0.04591 0.403963,-0.109159 0,0 -0.95341,0.729123 -0.95341,0.729123 v 0 c -0.248034,0.06368 -0.118393,0.02808 -0.388549,0.10814 -0.602816,0.203089 -1.173183,0.491969 -1.788694,0.658318 -0.10201,0.02061 -0.203134,0.04625 -0.30603,0.06185 -0.356564,0.05409 -0.718895,0.02814 -1.077672,0.04117 0,0 0.982742,-0.714005 0.982742,-0.714005 z"
       inkscape:connector-curvature="0" />
    <path
       style="fill:#00000a;fill-opacity:1;stroke-width:0.26458332"
       id="path69"
       d="m 78.624924,75.163713 c 0.487013,-0.202006 0.969036,-0.415604 1.453173,-0.624273 0.203928,-0.08069 0.399209,-0.173178 0.588958,-0.282488 0.05385,-0.03102 0.215651,-0.123658 0.161446,-0.09326 -0.913067,0.512014 -1.165241,0.691743 -0.730991,0.393547 0.525682,-0.335799 1.0488,-0.693137 1.631127,-0.921682 0,0 -0.946624,0.747305 -0.946624,0.747305 v 0 c -0.683627,0.31014 1.302478,-0.797367 0.592794,-0.36713 -0.05411,0.03281 -0.106444,0.06846 -0.159668,0.102698 -0.653923,0.445204 -1.339117,0.856496 -2.071097,1.15947 -0.489194,0.210434 -0.981885,0.414377 -1.461347,0.646247 0,0 0.942229,-0.760431 0.942229,-0.760431 z"
       inkscape:connector-curvature="0" />
    <path
       style="fill:#00000a;fill-opacity:1;stroke-width:0.26458332"
       id="path71"
       d="m 79.085407,75.679397 c 0.422918,-0.134871 0.845775,-0.271658 1.267124,-0.412126 0.338699,-0.109254 0.68644,-0.183856 1.036841,-0.242967 0,0 -0.953383,0.718252 -0.953383,0.718252 v 0 c -0.344337,0.06257 -0.686253,0.138337 -1.018318,0.250801 -0.431919,0.142647 -0.862071,0.290959 -1.295731,0.427863 0,0 0.963467,-0.741823 0.963467,-0.741823 z"
       inkscape:connector-curvature="0" />
    <path
       style="fill:#00000a;fill-opacity:1;stroke-width:0.26458332"
       id="path73"
       d="m 77.922582,71.610478 c 0.731504,-0.195106 1.469967,-0.357872 2.216243,-0.484777 0.429246,-0.06117 0.222395,-0.03415 0.620421,-0.08212 0,0 -0.950711,0.707967 -0.950711,0.707967 v 0 c -0.388089,0.04494 -0.1861,0.01915 -0.605801,0.07865 -0.755811,0.12849 -1.501947,0.299868 -2.239177,0.51085 0,0 0.959025,-0.730568 0.959025,-0.730568 z"
       inkscape:connector-curvature="0" />
    <path
       style="fill:#00000a;fill-opacity:1;stroke-width:0.26458332"
       id="path75"
       d="m 78.168213,72.629923 c 0.45824,-0.180922 0.940462,-0.284427 1.421006,-0.38541 0,0 -0.944216,0.716327 -0.944216,0.716327 v 0 c -0.486003,0.101934 -0.971016,0.217562 -1.42793,0.417023 0,0 0.95114,-0.74794 0.95114,-0.74794 z"
       inkscape:connector-curvature="0" />
    <path
       style="fill:#00000a;fill-opacity:1;stroke-width:0.26458332"
       id="path77"
       d="m 69.580005,77.674906 c 0.347096,0.649065 0.800505,1.23128 1.219174,1.833962 0.321656,0.475543 0.628425,0.96684 0.821608,1.510403 0.111593,0.313994 0.129942,0.43203 0.204599,0.751996 0.113562,0.561324 0.143354,1.133557 0.153276,1.704602 -0.02143,0.45425 0.08284,0.895133 0.24257,1.316675 0.176874,0.396441 0.387249,0.686937 0.7727,0.893389 0.491191,0.159671 1.021432,0.15757 1.532853,0.143095 0.426114,-0.0065 0.819052,-0.166619 1.220673,-0.286433 0.344993,-0.102917 0.444461,-0.122195 0.795571,-0.207399 0.881361,-0.167089 1.75383,-0.377412 2.633871,-0.551116 0.163828,-0.02648 0.327639,-0.05306 0.491482,-0.07943 0.3976,-0.064 0.508413,-0.08292 0.897858,-0.139366 0.304369,-0.04412 0.60537,-0.07415 0.904656,-0.144849 0.615254,-0.332248 -0.688795,0.37262 -0.776396,0.407553 -0.04374,0.01744 0.03831,-0.08858 0.03947,-0.135659 0.0016,-0.06101 -0.01596,-0.121365 -0.03172,-0.180322 -0.05734,-0.214342 -0.096,-0.268727 -0.193738,-0.469905 -0.275532,-0.519944 -0.645449,-0.980244 -0.973156,-1.46703 -0.219959,-0.2765 -0.318686,-0.658762 -0.59898,-0.887452 -0.04424,-0.0361 -0.09645,-0.06115 -0.144674,-0.09172 -0.529614,-0.274396 -1.065742,-0.530847 -1.633625,-0.71488 -0.516181,-0.15621 -1.05533,-0.178342 -1.580245,-0.293571 -0.740339,-0.168691 -1.349259,-0.637858 -1.98337,-1.028351 -0.490053,-0.261813 -0.972859,-0.535898 -1.462524,-0.798552 -0.488849,-0.264385 -1.011748,-0.429067 -1.559729,-0.506735 -0.462253,-0.04627 -0.927663,-0.04295 -1.391674,-0.04003 0,0 0.967984,-0.703419 0.967984,-0.703419 v 0 c 0.467143,0.0021 0.936013,5.3e-5 1.400492,0.05676 0.551984,0.09513 1.074671,0.280619 1.568336,0.547994 0.496216,0.256238 0.987272,0.522904 1.469173,0.805111 0.618242,0.39774 1.219957,0.853147 1.960272,0.992638 0.53005,0.100226 1.075465,0.125155 1.588463,0.305289 0.575162,0.198279 1.125651,0.456777 1.668219,0.731253 0.05279,0.03814 0.109834,0.07099 0.158358,0.114416 0.274074,0.245306 0.38281,0.621631 0.600144,0.90973 0.32575,0.494268 0.687708,0.96515 0.978998,1.481453 0.108683,0.217461 0.246139,0.460541 0.273749,0.707898 0.007,0.0631 0.03705,0.150005 -0.0122,0.190089 -0.757856,0.61694 -0.751631,0.600237 -1.281824,0.787938 -0.750512,0.133786 -1.516324,0.180678 -2.263468,0.339606 -0.881634,0.180334 -1.757937,0.386437 -2.640383,0.562583 -0.413541,0.104704 -0.388638,0.09302 -0.796197,0.217657 -0.409184,0.125127 -0.814655,0.267827 -1.249246,0.265295 -0.529947,0.0062 -1.084826,0.01426 -1.584042,-0.185894 -0.385278,-0.23364 -0.628454,-0.555328 -0.810437,-0.966716 -0.165788,-0.432713 -0.279133,-0.887148 -0.261901,-1.354283 -0.0016,-0.566266 -0.01662,-1.134668 -0.121452,-1.692957 -0.06778,-0.310275 -0.0855,-0.434473 -0.191063,-0.73846 -0.186177,-0.536152 -0.484973,-1.02394 -0.804553,-1.489565 -0.419873,-0.603157 -0.872315,-1.184074 -1.258411,-1.810432 0,0 1.040458,-0.612857 1.040458,-0.612857 z"
       inkscape:connector-curvature="0" />
    <path
       style="fill:#00000a;fill-opacity:1;stroke-width:0.26458332"
       id="path85"
       d="m 72.894282,80.716201 c -0.380855,0.534638 -0.668901,0.753348 -1.518013,0.831691 -0.114633,0.01058 -0.102359,-0.206623 -0.143462,-0.314155 -0.0526,-0.137613 -0.09148,-0.280088 -0.137213,-0.42013 -0.217421,-0.635905 -0.25595,-1.341731 -0.565814,-1.945857 -0.0365,-0.07116 -0.08353,-0.136406 -0.125296,-0.20461 -0.02914,-0.03095 -0.121301,-0.16424 -0.200687,-0.152947 -0.024,0.0034 -0.07193,0.06354 -0.0504,0.05242 0.333301,-0.172135 0.649467,-0.377481 0.98893,-0.537123 0.03207,-0.01508 -0.03665,0.06124 -0.04824,0.09473 -0.01506,0.04356 -0.02074,0.08982 -0.03111,0.134734 -0.01759,0.14504 -0.03681,0.292386 -0.03339,0.438973 5.29e-4,0.01968 -0.01122,0.05899 0.0085,0.05846 0.01992,-5.29e-4 -0.0031,-0.04377 0.0098,-0.05895 0.02225,-0.02622 0.0581,-0.03684 0.08715,-0.05526 0.221023,-0.06271 0.571958,-0.257924 0.799571,-0.144899 0.05733,0.02847 0.09885,0.08135 0.148281,0.122021 0.03862,0.07196 0.0837,0.140808 0.115874,0.215873 0.08089,0.18872 0.15921,0.740627 0.284649,0.860505 0.03016,0.02882 0.07867,0.02781 0.118007,0.04172 0.228074,-7.93e-4 0.483251,-0.121084 0.680614,0.053 0.118251,0.104299 0.162275,0.243563 0.224105,0.381347 0.149209,0.4226 0.160716,0.874773 0.171387,1.318117 0.01733,0.104304 -0.0313,0.422889 0.04706,0.511207 0.04255,0.04795 0.204792,-0.04536 0.285975,-0.07928 0.118829,-0.04966 0.237976,-0.09855 0.356965,-0.147821 0.620786,-0.222382 1.36493,-0.575542 2.044038,-0.466217 0.07971,0.01283 0.154459,0.04709 0.231688,0.07063 0.05737,0.05255 0.123023,0.0973 0.172111,0.157665 0.238853,0.293704 0.251082,0.721654 0.27214,1.080135 0.07782,0.397463 0.248402,0.282858 0.538046,0.134721 0.117634,-0.06016 0.234792,-0.121251 0.35219,-0.181878 0.407559,-0.226734 0.825899,-0.436046 1.254458,-0.620387 0.153771,-0.06614 0.449165,-0.186388 0.625592,-0.225628 0.06935,-0.01543 0.141298,-0.01492 0.211949,-0.02241 0.05254,0.01392 0.110326,0.01495 0.157615,0.04174 0.197348,0.111794 0.254469,0.397727 0.223594,0.599794 -0.01114,0.07295 -0.03759,0.142732 -0.05638,0.214099 -0.194797,0.454755 -0.483568,0.864682 -0.849233,1.197371 -0.380929,0.222301 -0.761857,0.444598 -1.142786,0.666896 0,0 0.940872,-0.758373 0.940872,-0.758373 v 0 c -0.303808,0.180073 -0.607613,0.360149 -0.911418,0.540224 0.389226,-0.29123 0.665165,-0.702897 0.881144,-1.133941 0.0556,-0.165367 0.115713,-0.305668 0.05299,-0.478075 -0.02254,-0.06198 -0.0604,-0.13326 -0.128482,-0.158099 -0.04016,-0.01466 -0.08494,-0.0098 -0.12741,-0.01474 -0.735885,0.122717 -1.384498,0.557922 -2.043303,0.880954 -0.160287,0.08 -0.459827,0.251645 -0.658998,0.280826 -0.241683,0.03541 -0.356171,-0.228629 -0.383473,-0.414713 -0.01333,-0.318296 -0.0049,-0.73678 -0.225444,-0.996172 -0.03924,-0.04614 -0.09372,-0.07675 -0.140584,-0.115125 -0.06914,-0.01778 -0.136559,-0.0446 -0.207409,-0.05333 -0.682781,-0.08414 -1.380723,0.270476 -2.001422,0.495901 -0.14745,0.05723 -0.4503,0.213034 -0.645615,0.178612 -0.265245,-0.04674 -0.177176,-0.467214 -0.191527,-0.639315 -0.0064,-0.4283 -0.01066,-0.865355 -0.148246,-1.275747 -0.04663,-0.103158 -0.08505,-0.23182 -0.184838,-0.302834 -0.199885,-0.142251 -0.473726,0.04907 -0.686908,-0.0602 -0.051,-0.03514 -0.112721,-0.05837 -0.152998,-0.10542 -0.196535,-0.229595 -0.142444,-0.78712 -0.373034,-1.02679 -0.0384,-0.02331 -0.07202,-0.05757 -0.115207,-0.06996 -0.21208,-0.0608 -0.56615,0.138065 -0.773465,0.19004 -0.04312,0.0048 -0.08759,0.02606 -0.12937,0.01437 -0.182901,-0.05127 -0.06425,-0.480285 -0.06999,-0.610987 5.3e-4,-0.0032 0.03116,-0.266956 0.04754,-0.278704 0.0966,-0.06929 0.906552,-0.97437 1.294958,-0.582311 0.04322,0.04362 0.07636,0.09618 0.114532,0.144275 0.120579,0.213421 0.161486,0.26443 0.243952,0.510069 0.183499,0.546584 0.247964,1.128504 0.434234,1.674664 0.04837,0.133036 0.08926,0.269031 0.1451,0.399108 0.03876,0.09029 0.202605,0.186397 0.138033,0.260456 -0.250822,0.287676 -0.621721,0.443003 -0.937839,0.656868 -0.04527,0.03062 0.08692,-0.067 0.124536,-0.106643 0.04261,-0.0449 0.07745,-0.09661 0.115012,-0.145814 0.02803,-0.03672 0.05449,-0.07461 0.08173,-0.111916 0,0 1.11411,-0.487461 1.11411,-0.487461 z"
       inkscape:connector-curvature="0" />
    <path
       style="fill:#00000a;fill-opacity:1;stroke-width:0.26458332"
       id="path87"
       d="m 61.509716,81.414947 c 0.654357,-0.707731 1.364512,-1.363623 2.059448,-2.031503 0.558406,-0.490386 1.141415,-0.952378 1.737905,-1.395431 0.158893,-0.11802 0.312251,-0.244826 0.481383,-0.347641 1.307063,-0.794549 0.876461,-0.680879 1.64466,-0.82827 0.05116,0.02643 0.125715,0.02886 0.153461,0.07931 0.141161,0.256704 -0.292999,0.631505 -0.433533,0.763265 -0.252425,0.236667 -0.687003,0.585906 -0.944943,0.798047 -0.895247,0.741325 -1.876475,1.368118 -2.79913,2.072677 -0.06672,0.05827 -0.581711,0.497972 -0.54165,0.600077 0,0 -1.066395,0.586759 -1.066395,0.586759 v 0 c -0.01304,-0.04085 -0.04846,-0.0807 -0.03912,-0.122555 0.04706,-0.211103 0.433038,-0.489815 0.5656,-0.632751 0.927989,-0.716066 1.931823,-1.331212 2.834026,-2.08235 0.404434,-0.334585 0.819682,-0.659051 1.181661,-1.040845 0.05943,-0.06268 0.11394,-0.129852 0.170608,-0.19504 0.02254,-0.02593 0.07511,-0.04491 0.067,-0.07828 -0.0077,-0.03159 -0.06207,-0.01937 -0.0931,-0.02904 -0.08038,0.02096 -0.304083,0.11703 -0.24113,0.06284 0.178279,-0.153456 0.369427,-0.324546 0.599892,-0.371653 0.198718,-0.04062 -0.333354,0.231222 -0.497271,0.350679 -0.597707,0.435581 -1.178917,0.894339 -1.736545,1.380281 -0.43072,0.4162 -0.854493,0.839147 -1.28343,1.257139 -0.209918,0.204562 -0.355804,0.332041 -0.548198,0.54456 -0.05488,0.06062 -0.104132,0.126105 -0.156197,0.189156 0,0 -1.115002,0.470569 -1.115002,0.470569 z"
       inkscape:connector-curvature="0" />
    <path
       style="fill:#00000a;fill-opacity:1;stroke-width:0.26458332"
       id="path89"
       d="m 65.422763,82.416787 c -0.299201,0.30929 -0.241109,0.26076 -1.132562,0.45113 -0.07352,0.01569 0.06638,-0.135104 0.104892,-0.199676 0.239342,-0.401333 0.511484,-0.786804 0.764196,-1.179748 0.300915,-0.472736 0.584186,-0.956371 0.89146,-1.425098 0.01185,-0.01807 0.391089,-0.596056 0.465214,-0.647954 0.370838,-0.259636 0.777865,-0.46331 1.166797,-0.694963 0.04824,0.05051 0.119637,0.08635 0.144722,0.151538 0.07449,0.19359 0.0145,0.562964 -0.01011,0.738915 -0.07323,0.523838 -0.200081,1.037254 -0.320704,1.551514 -0.126834,0.565959 -0.266584,1.128704 -0.383403,1.69686 -0.05289,0.257249 -0.03985,0.15594 -0.05616,0.32055 -1.410232,0.657061 -1.185397,0.712669 -0.820796,0.02947 0.183581,-0.343993 0.36449,-0.683845 0.566494,-1.017649 0.350263,-0.569121 0.434102,-0.698632 1.33386,-0.994775 0.07622,-0.02508 0.04475,0.157446 0.03929,0.237504 -0.0076,0.112275 -0.173078,0.614611 -0.195684,0.686829 -0.217564,0.753324 -0.597371,1.441915 -0.883499,2.168514 -0.219977,0.592355 0.05938,0.35315 -1.130959,0.733274 -0.07759,0.02479 0.12246,-0.108119 0.176125,-0.169397 0.0302,-0.03449 0.446138,-0.579281 0.456851,-0.593277 0.610587,-0.792337 0.884931,-1.064202 1.919748,-1.53547 0.047,-0.02141 0.09997,0.04525 0.126378,0.08963 0.03506,0.05893 0.03081,0.13363 0.04622,0.200448 -0.06204,0.600962 -0.396435,1.109575 -0.742979,1.585693 -0.337047,0.453194 -0.17222,0.346631 -1.169334,0.622681 -0.08879,0.02458 0.133684,-0.126868 0.198258,-0.192582 0.753581,-0.766916 -0.301088,0.278302 0.594315,-0.602824 0.314346,-0.27894 0.598162,-0.614638 0.961893,-0.834832 0.417938,-0.253008 0.836025,-0.508021 1.273508,-0.72549 0.06952,-0.03456 0.156109,-0.04008 0.231799,-0.02278 0.06261,0.01431 0.104685,0.07441 0.15703,0.111617 0.01961,0.07575 0.0564,0.149045 0.05879,0.227251 0.01376,0.450808 -0.418828,1.165209 -0.65123,1.541447 0,0 -1.076055,0.473892 -1.076055,0.473892 v 0 c 0.251087,-0.387673 0.618514,-0.983051 0.668721,-1.449824 0.005,-0.04636 -0.0088,-0.09283 -0.01328,-0.139245 -0.03333,-0.0158 -0.06312,-0.0471 -0.100002,-0.04736 -0.239731,-0.0016 -1.264875,0.550072 0.538446,-0.400529 0.114313,-0.06026 -0.214551,0.144505 -0.316243,0.22424 -0.249563,0.195681 -0.431935,0.379944 -0.662427,0.598961 -0.278331,0.274437 -0.325845,0.310846 -0.569682,0.587013 -0.05801,0.0657 -0.09186,0.159361 -0.168532,0.201837 -0.38581,0.213746 -0.791295,0.391837 -1.200428,0.556601 -0.02463,0.0099 -2.64e-4,-0.05585 0.01339,-0.07856 0.04045,-0.06666 0.09697,-0.122124 0.145449,-0.183187 0.341599,-0.449056 0.669404,-0.922208 0.761892,-1.492081 0.0019,-0.03252 0.01841,-0.0677 0.0054,-0.09757 -0.0065,-0.01503 -0.03274,-0.0019 -0.04912,-0.0028 0.286033,-0.173434 0.572066,-0.346868 0.8581,-0.520303 0.0978,-0.04745 -0.164034,0.143021 -0.240253,0.220536 -0.226859,0.230711 -0.323784,0.366974 -0.526237,0.621839 -0.30098,0.398175 -0.16378,0.209696 -0.432697,0.590667 -0.04626,0.06553 -0.06836,0.158073 -0.138676,0.19667 -1.192967,0.654796 -1.343869,0.872993 -1.078212,0.200729 0.292441,-0.725821 0.686411,-1.409245 0.900647,-2.165787 0.03658,-0.123015 0.07641,-0.245112 0.109747,-0.369046 0.02461,-0.09148 0.03071,-0.188219 0.06403,-0.276902 0.009,-0.02405 0.03687,-0.03642 0.05876,-0.04989 0.329978,-0.202949 0.651317,-0.422051 0.996016,-0.59884 0.14296,-0.07332 -0.596437,0.589233 -0.279328,0.392798 -0.205666,0.32838 -0.386035,0.659365 -0.559086,1.005858 -0.04547,0.09105 -0.09407,0.180568 -0.137538,0.27259 -0.02747,0.05815 -0.01976,0.145016 -0.07516,0.177702 -0.360355,0.212646 -0.756597,0.357574 -1.134893,0.536361 0.170717,-0.682977 0.334272,-1.367952 0.498462,-2.052659 0.118565,-0.50678 0.242911,-1.011637 0.308676,-1.528794 0.01183,-0.0931 0.06004,-0.480745 0.02646,-0.623382 -0.0046,-0.01971 -0.0344,-0.02141 -0.0516,-0.03211 0.283395,-0.173363 0.542642,-0.394451 0.850183,-0.520091 0.108148,-0.04418 -0.157067,0.173323 -0.228203,0.265991 -0.436761,0.568957 -0.775507,1.20632 -1.163878,1.807236 -0.09812,0.156779 -0.196229,0.313558 -0.294344,0.470339 -0.08307,0.133702 -0.165846,0.267595 -0.249222,0.401109 -0.05827,0.09331 -0.11898,0.18511 -0.175707,0.279365 -0.03374,0.05606 -0.03924,0.138198 -0.0956,0.171416 -0.364781,0.214995 -0.760722,0.372091 -1.141336,0.557615 -0.01656,0.0081 0.0328,-0.01685 0.0492,-0.02527 0,0 1.123736,-0.465468 1.123736,-0.465468 z"
       inkscape:connector-curvature="0" />
    <path
       style="fill:#00000a;fill-opacity:1;stroke-width:0.26458332"
       id="path91"
       d="m 62.50723,82.426499 c 1.05115,0.21912 2.035201,0.654849 2.99599,1.121447 0.566696,0.307481 1.224601,0.587709 1.595679,1.146578 0.04339,0.06535 0.07483,0.137882 0.112244,0.206822 0.04246,0.111593 0.1026,0.230224 0.09805,0.355026 -0.01643,0.450051 -1.136251,0.706125 -1.229958,0.733702 -0.107085,0.03151 -0.196694,-0.106079 -0.290545,-0.166515 -0.126383,-0.08138 -0.246329,-0.172344 -0.369496,-0.258519 -0.853516,-0.685549 -1.630971,-1.459146 -2.479508,-2.150684 -0.06668,-0.04579 -0.130577,-0.0959 -0.200022,-0.137369 -0.02162,-0.01291 -0.0476,-0.01646 -0.0714,-0.02471 0.361887,-0.186831 0.697498,-0.437222 1.085662,-0.560491 0.07228,-0.02294 0.101947,0.112342 0.155036,0.166492 0.22089,0.225298 0.277765,0.270573 0.519054,0.490614 0.269052,0.235931 0.535435,0.486177 0.841878,0.674886 0.06505,0.04006 0.131201,0.08327 0.205293,0.101896 0.03275,0.0082 0.127828,-0.04151 0.09802,-0.02564 -0.343103,0.182838 -0.69343,0.351787 -1.040145,0.52768 -0.381659,-0.649203 -1.039723,-1.083189 -1.668373,-1.46844 -0.284488,-0.153784 -0.580231,-0.297257 -0.893871,-0.382233 -0.07682,-0.02082 -0.299233,-0.06807 -0.392964,-0.04682 -0.02761,0.0063 -0.04212,0.03785 -0.06318,0.05678 0.357034,-0.202813 0.69006,-0.455424 1.071097,-0.608443 0.06105,-0.02453 0.105852,0.07835 0.161486,0.113458 0.468902,0.295924 1.007504,0.476309 1.519542,0.68135 0.419941,0.165849 0.844076,0.326115 1.279464,0.447561 0.174175,0.04859 0.350464,0.110432 0.534072,0.06546 0.05012,-0.01228 0.08934,-0.05165 0.134017,-0.07748 -0.330116,0.173096 -0.642954,0.384172 -0.990346,0.519284 -0.03884,0.01511 -0.01868,-0.08349 -0.04283,-0.117451 -0.03981,-0.056 -0.09128,-0.103629 -0.144878,-0.146613 -0.217337,-0.174303 -0.478682,-0.268039 -0.734902,-0.36644 -0.64348,-0.229103 -1.261454,-0.517261 -1.864582,-0.836105 -0.237289,-0.119525 -0.475803,-0.23963 -0.728959,-0.322678 -0.06591,-0.02162 -0.131326,-0.0492 -0.200318,-0.05644 -0.04368,-0.0046 -0.167765,0.04412 -0.129956,0.02178 0.324064,-0.191572 0.663639,-0.355614 0.995458,-0.533419 0.231182,0.263874 0.549029,0.44953 0.846053,0.627872 0.460711,0.276633 0.578008,0.32888 1.074227,0.590413 1.157898,0.600659 2.387184,1.041828 3.572523,1.582121 0,0 -0.957726,0.634108 -0.957726,0.634108 v 0 c -1.17529,-0.556383 -2.3978,-1.006439 -3.556977,-1.598013 -0.515461,-0.260313 -0.624705,-0.306626 -1.104871,-0.580435 -0.270396,-0.154192 -0.673433,-0.359048 -0.882319,-0.604679 -0.04628,-0.05442 -0.07549,-0.121298 -0.113239,-0.181946 0.367477,-0.216024 0.722355,-0.455078 1.102432,-0.648076 0.05449,-0.02767 0.333287,0.07724 0.345593,0.08179 0.250862,0.09273 0.486566,0.220162 0.723577,0.342659 0.599776,0.320157 1.219798,0.595548 1.861429,0.821865 0.333626,0.1329 0.727588,0.277116 0.946946,0.583147 0.03963,0.05528 0.134877,0.13784 0.08593,0.185076 -0.309002,0.298235 -0.700326,0.497244 -1.050488,0.745868 -0.0513,0.01114 -0.101434,0.03174 -0.153903,0.03345 -0.19009,0.0062 -0.351452,-0.05199 -0.53171,-0.108458 -0.430238,-0.134781 -0.851947,-0.296283 -1.27069,-0.462746 -0.52659,-0.207272 -1.084696,-0.384651 -1.571011,-0.679405 -0.06504,-0.03942 -0.236667,-0.06918 -0.188725,-0.128214 0.252481,-0.310923 0.613492,-0.515083 0.920239,-0.772623 0.493946,-0.02064 0.95303,0.277482 1.373384,0.493824 0.65632,0.419152 1.328756,0.876442 1.763188,1.537411 -0.338878,0.247949 -0.661257,0.52019 -1.016637,0.743847 -0.03352,0.02109 -0.07881,-0.01468 -0.114433,-0.03202 -0.396705,-0.192977 -0.70309,-0.540943 -1.042373,-0.811919 -0.25336,-0.223893 -0.300818,-0.263192 -0.540721,-0.484799 -0.06279,-0.058 -0.243782,-0.111937 -0.186817,-0.175667 0.856234,-0.957953 0.743511,-0.91793 1.224076,-0.50908 0.816814,0.719926 1.588916,1.494526 2.466377,2.142493 0.125833,0.07813 0.246097,0.166047 0.3775,0.2344 0.08857,0.04607 0.344672,0.03168 0.279601,0.107402 -0.232662,0.270722 -0.589016,0.40349 -0.887246,0.599652 -0.02775,0.01826 0.06474,-0.03392 0.07512,-0.06547 0.02945,-0.08958 -0.04278,-0.249201 -0.06683,-0.320244 -0.03257,-0.064 -0.0594,-0.131268 -0.09771,-0.192019 -0.344826,-0.54693 -0.982038,-0.824484 -1.521661,-1.129278 -0.95731,-0.467598 -1.956533,-0.917927 -3.02651,-1.035672 0,0 0.978588,-0.710986 0.978588,-0.710986 z"
       inkscape:connector-curvature="0" />
    <path
       style="fill:#00000a;fill-opacity:1;stroke-width:0.26458332"
       id="path93"
       d="m 61.149139,81.753685 c 0.423175,-0.693565 0.757666,-1.438648 1.103665,-2.172904 0.258217,-0.53318 0.508386,-1.080577 0.876469,-1.549722 0.156993,-0.2001 0.249155,-0.279406 0.424392,-0.449422 0.401052,-0.303527 0.791326,-0.615667 1.165862,-0.951777 0.569513,-0.460121 1.268,-1.235131 2.01376,-1.163408 0.345525,0.07127 0.622109,0.340083 0.82341,0.616517 0.180557,0.320045 0.258156,0.680936 0.405693,1.01565 0.148815,0.327758 0.317251,0.519248 0.658225,0.636717 0,0 -1.001175,0.672021 -1.001175,0.672021 v 0 c -0.351189,-0.151598 -0.544378,-0.370536 -0.70277,-0.718873 -0.149757,-0.325385 -0.221015,-0.678572 -0.393301,-0.993868 -0.185767,-0.251976 -0.441386,-0.49309 -0.768755,-0.518112 -0.400126,0.03953 -1.029962,0.469411 0.64321,-0.462645 0.05989,-0.03336 -0.112146,0.07897 -0.166309,0.120994 -0.109842,0.08523 -0.318876,0.264245 -0.419092,0.349025 -0.371718,0.3356 -0.740235,0.673047 -1.16115,0.947888 -0.176893,0.157247 -0.291658,0.249404 -0.449332,0.435594 -0.384852,0.454462 -0.640265,1.000033 -0.89459,1.533068 -0.339654,0.72916 -0.680427,1.459052 -1.055405,2.170742 0,0 -1.102807,0.482515 -1.102807,0.482515 z"
       inkscape:connector-curvature="0" />
    <path
       style="fill:#00000a;fill-opacity:1;stroke-width:0.26458332"
       id="path97"
       d="m 66.980577,74.700777 c -0.288737,0.166913 -1.159356,0.659794 -0.866214,0.50074 0.433927,-0.235445 0.856398,-0.491514 1.288682,-0.729964 0.494252,-0.272635 1.026549,-0.462738 1.563598,-0.629277 0.639897,-0.176525 1.29608,-0.288184 1.956387,-0.350864 0.311637,-0.02844 0.624197,-0.04602 0.937136,-0.04605 0.307803,-0.0087 0.615055,-0.0455 0.922639,-0.06692 0.266644,-0.01574 0.507103,-0.05946 0.746625,0.07986 0.138753,0.101787 0.07091,0.04688 0.20302,0.165319 0,0 -1.026131,0.639292 -1.026131,0.639292 v 0 c -0.123502,-0.101936 -0.05935,-0.05628 -0.191897,-0.13774 -0.221983,-0.09333 -0.467164,-0.03777 -0.700873,-0.03211 -0.311124,0.02193 -0.621398,0.06217 -0.933416,0.06518 -0.30394,0.0034 -0.607928,0.01214 -0.910738,0.04051 -0.648785,0.06684 -1.294622,0.174114 -1.921984,0.35569 -0.418639,0.136802 -0.820642,0.287409 -1.217578,0.479776 -0.117295,0.05685 -0.457131,0.249664 -0.347861,0.1786 0.130138,-0.08464 2.621873,-1.523969 -0.445677,0.251938 0,0 0.944282,-0.763971 0.944282,-0.763971 z"
       inkscape:connector-curvature="0" />
    <path
       style="fill:#00000a;fill-opacity:1;stroke-width:0.26458332"
       id="path99"
       d="m 68.264243,76.300112 c 0.524867,0.06829 1.036246,0.199509 1.534731,0.375528 0.243308,0.07387 0.475229,0.178219 0.711444,0.270979 0.110508,0.0434 0.241405,0.07031 0.32604,0.157816 -0.377134,0.217985 -0.736335,0.470471 -1.131408,0.653957 -0.06101,0.02834 -0.132165,-0.02522 -0.198517,-0.03628 -0.08072,-0.01347 -0.161629,-0.0258 -0.242649,-0.03731 -0.248076,-0.03524 -0.486209,-0.06373 -0.736637,-0.05498 -0.03283,0.0086 -0.126881,0.04435 -0.09848,0.0258 1.170942,-0.765429 0.741963,-0.722378 1.611873,-0.481883 0.06257,0.01513 0.125129,0.03027 0.187695,0.0454 0,0 -0.987062,0.68081 -0.987062,0.68081 v 0 c -0.06279,-0.01622 -0.125585,-0.03246 -0.188378,-0.04869 -0.173165,-0.04833 -0.367051,-0.08325 -0.532646,-0.154692 -0.04274,-0.01844 -0.155702,-0.03976 -0.120629,-0.07037 0.8157,-0.711874 0.610672,-0.690284 1.096026,-0.699582 0.333057,0.01336 0.659783,0.06357 0.989991,0.10627 0.575014,0.07436 0.296442,-0.04242 -0.695856,0.704736 -0.304017,-0.163501 -0.644782,-0.278167 -0.970354,-0.398745 -0.500783,-0.167772 -1.013754,-0.296267 -1.542135,-0.336614 0,0 0.986949,-0.70214 0.986949,-0.70214 z"
       inkscape:connector-curvature="0" />
    <path
       style="fill:#00000a;fill-opacity:1;stroke-width:0.26458332"
       id="path101"
       d="m 76.018376,79.342786 c 0.52065,-0.173405 1.060632,-0.270748 1.601369,-0.355597 0.258403,-0.04159 0.518925,-0.05855 0.780212,-0.06217 0.366365,-0.09278 1.173569,-0.616883 -0.832353,0.496779 -0.02246,0.01246 0.04331,-0.02784 0.06305,-0.04427 0.02656,-0.02209 0.08593,-0.08591 0.110262,-0.11149 0.117917,-0.169908 0.168315,-0.379045 0.245965,-0.569844 0.06576,-0.122052 0.03121,-0.06594 0.101862,-0.169418 0,0 1.117049,-0.478536 1.117049,-0.478536 v 0 c -0.07981,0.08856 -0.04015,0.04081 -0.117964,0.144092 -0.09423,0.192239 -0.14605,0.400871 -0.227748,0.597096 -0.324615,0.456727 -0.87892,0.814652 -1.441622,0.85117 -0.252275,0.0048 -0.50392,0.0265 -0.753637,0.06293 -0.542803,0.082 -1.082381,0.190553 -1.599419,0.379619 0,0 0.952979,-0.740368 0.952979,-0.740368 z"
       inkscape:connector-curvature="0" />
  </g>
</svg>
